<?xml version="1.0" encoding="UTF-8"?>
<svg version="1.1" xmlns="http://www.w3.org/2000/svg" width="512" height="512">
<path d="M0 0 C4.20515998 1.37761858 6.99531289 4.55341484 10.01659584 7.66064072 C10.66214298 8.29171423 11.30769012 8.92278774 11.9727993 9.5729847 C14.0422776 11.60473205 16.07805772 13.66618874 18.10985756 15.73559189 C19.69447624 17.33986167 21.2791018 18.94412467 22.86373329 20.54838181 C23.69161228 21.38848989 24.51949127 22.22859798 25.3724575 23.09416389 C29.79520646 27.57812024 34.23354811 32.04661792 38.66893959 36.51806259 C44.29485384 42.19188735 49.91640903 47.86978238 55.52196693 53.56371689 C60.06981612 58.18195646 64.63229718 62.78528585 69.20477104 67.37914085 C70.93806456 69.12598554 72.66594336 70.87822098 74.38814354 72.63600349 C76.79979057 75.09611998 79.22971391 77.53672991 81.66454506 79.97387314 C82.36408302 80.6965538 83.06362099 81.41923447 83.78435707 82.16381454 C89.7821693 88.1012077 96.30573647 91.61005818 104.82909584 92.16064072 C111.40789153 91.93572462 117.80856658 90.39396068 124.24193764 89.0998497 C138.22482686 86.3517602 150.24414964 87.05841003 162.52831459 94.83642197 C166.21959797 97.54259047 169.51149012 100.61740275 172.79003334 103.80517197 C175.56227568 106.18654769 175.56227568 106.18654769 179.01659584 106.66064072 C181.62628818 104.99516583 181.62628818 104.99516583 184.20409584 102.59814072 C195.25870974 93.14585782 205.2920989 87.30455523 220.16893959 87.35985947 C225.06673387 87.74273273 229.77037365 88.68103918 234.57909584 89.66064072 C250.27302757 92.82535453 250.27302757 92.82535453 265.01659584 87.66064072 C270.79194328 83.10575252 275.97056275 77.84215224 281.14501381 72.629879 C282.29774536 71.47495705 282.29774536 71.47495705 283.47376442 70.29670334 C285.12755971 68.639127 286.78019966 66.9803973 288.43178368 65.32061768 C291.04336585 62.69620075 293.6581218 60.0749831 296.27370644 57.45455551 C301.81582154 51.90105767 307.35398054 46.34362502 312.89159584 40.78564072 C319.33054377 34.32302899 325.77117477 27.86210749 332.21597099 21.40532684 C334.79615875 18.81864108 337.37332639 16.22897148 339.95040321 13.63918686 C341.5216369 12.06432306 343.09300981 10.48959813 344.66454506 8.91503525 C345.74296921 7.82886162 345.74296921 7.82886162 346.8431797 6.72074509 C347.49908592 6.06476837 348.15499214 5.40879166 348.83077431 4.73293686 C349.40111334 4.16037722 349.97145237 3.58781757 350.5590744 2.99790764 C352.76865382 0.97063217 354.1263754 0.64307599 357.14159584 0.16064072 C370.14251961 1.83817927 386.01357153 24.19348734 395.09848976 33.1940937 C398.94797718 37.00767689 402.80587738 40.81181014 406.68505287 44.59521103 C410.45541189 48.27280871 414.20327853 51.97197828 417.93627357 55.68748474 C419.35752729 57.09465819 420.78652833 58.49405231 422.22338295 59.88529205 C424.22949833 61.83070635 426.20543647 63.80261465 428.17675209 65.78319931 C428.77198174 66.34764252 429.36721138 66.91208572 429.98047829 67.49363327 C432.88454401 70.47265038 434.45651958 72.8392855 434.87102699 77.04114914 C434.42004848 83.13133593 430.40710823 86.43283271 426.18554115 90.44994736 C424.93696831 91.69085381 424.93696831 91.69085381 423.66317177 92.95682907 C420.91053489 95.68283559 418.12788211 98.37599317 415.34472084 101.07079697 C413.42120312 102.96191189 411.5050898 104.86045444 409.58904457 106.7591362 C405.05626648 111.24335581 400.50275818 115.70583156 395.93986011 120.15938038 C387.77795962 128.12632535 379.64457315 136.12221792 371.52978396 144.13713163 C368.22748947 147.39662655 364.90700566 150.63686344 361.58184242 153.87305832 C359.84253835 155.58184132 358.10364519 157.29104269 356.36522865 159.00072861 C355.57544624 159.76199051 354.78566383 160.52325241 353.97194862 161.30758286 C348.03168626 167.18667772 343.2119622 173.48343222 342.88378334 182.18017197 C342.87974766 183.61115823 342.88276467 185.04217601 342.89159584 186.47314072 C342.89352943 187.22998154 342.89546303 187.98682236 342.89745522 188.76659775 C342.94217361 194.68805804 343.32395383 200.55395837 343.78222084 206.45751572 C344.57388294 217.27689776 344.08528271 227.39376304 338.70409584 237.09814072 C336.65322602 240.39992136 336.65322602 240.39992136 337.71972084 243.00439072 C339.65587206 246.97000165 341.65392321 250.898784 343.67675209 254.82079697 C349.21392415 266.55701879 346.20995158 282.1556423 343.35180092 294.27758408 C341.56243854 302.23456923 341.86889653 309.10616237 345.01659584 316.66064072 C345.37502711 321.05142373 345.05026981 322.59329278 343.01659584 326.66064072 C346.97659584 330.62064072 350.93659584 334.58064072 355.01659584 338.66064072 C355.67659584 338.33064072 356.33659584 338.00064072 357.01659584 337.66064072 C359.64159584 337.16064072 359.64159584 337.16064072 363.01659584 337.66064072 C376.10894059 346.69246743 387.27848569 360.50024012 398.53661537 371.66576767 C401.5272943 374.62956096 404.52862027 377.58192203 407.53954506 380.52514267 C411.1909709 384.09471454 414.82246881 387.68345842 418.44063759 391.286726 C419.8181115 392.65195781 421.2024614 394.01028875 422.5937748 395.36141396 C424.53516549 397.24942329 426.44990478 399.16106703 428.36034584 401.08031845 C428.93687401 401.62965546 429.51340218 402.17899246 430.10740089 402.74497604 C432.96818908 405.6744107 434.37623683 407.67804206 434.53177834 411.84826279 C433.86076511 416.81379646 433.86076511 416.81379646 431.42992592 419.23900986 C430.78528389 419.90280655 430.14064186 420.56660324 429.47646523 421.25051498 C428.25882988 422.44352722 428.25882988 422.44352722 427.01659584 423.66064072 C425.98248791 424.71246688 424.95054356 425.76642262 423.92025185 426.82198715 C420.10933753 430.71177921 416.25705436 434.55944206 412.40331459 438.40673447 C410.98306869 439.82765483 409.56297119 441.24872354 408.14301491 442.66993332 C405.18184189 445.63257373 402.21888477 448.59341486 399.25463295 451.5529747 C395.45024472 455.35163482 391.6504057 459.15480909 387.85186481 462.9593153 C384.92754195 465.88724302 382.00085238 468.81279565 379.07342911 471.73762321 C377.67041826 473.13996621 376.26815201 474.54305456 374.86663818 475.94689369 C372.91601707 477.90004344 370.96223845 479.84997774 369.00756264 481.79906845 C368.42730324 482.38135208 367.84704384 482.96363571 367.24920082 483.5635643 C363.84954786 486.94516846 362.22111746 488.47546344 357.43284035 489.21158981 C352.43885875 489.12170612 350.08775859 486.6579767 346.66353798 483.25851059 C345.90227608 482.4622023 345.14101418 481.66589401 344.35668373 480.84545517 C343.53116508 480.01467957 342.70564644 479.18390396 341.85511208 478.32795334 C339.13097746 475.57786011 336.43585248 472.80099563 333.73925209 470.02392197 C331.84860146 468.10329632 329.95128255 466.18931782 328.05381203 464.27543259 C323.56927956 459.74542229 319.10383084 455.19712986 314.64641708 450.64044684 C306.67784026 442.49465648 298.68717138 434.37069572 290.67486376 426.26791734 C287.41728781 422.97154526 284.17833003 419.65754379 280.94312477 416.33918381 C279.23119235 414.59992117 277.51880846 412.86110276 275.80590248 411.12279892 C275.04666481 410.33661179 274.28742714 409.55042465 273.50518227 408.74041367 C267.18842343 402.37079088 260.32102847 396.94342529 251.05565834 396.52782822 C245.03641926 396.54160222 239.08073377 396.68269458 233.07909584 397.16064072 C216.89667064 398.37341755 202.10697419 398.53648138 189.01659584 387.66064072 C186.24615858 385.08543561 183.59442585 382.42812035 181.01659584 379.66064072 C178.03825251 380.98577835 176.13930433 382.38247026 173.95409584 384.78564072 C164.40722772 394.55690104 152.91705918 401.58012166 139.01659584 401.97314072 C132.98297226 401.95071089 127.33916079 400.8594023 121.45409584 399.66064072 C109.9264985 397.34176061 100.7773769 395.96085362 90.01659584 401.66064072 C86.73260078 404.17309148 83.89520782 407.02972896 81.01854897 409.99340439 C80.18149422 410.83118927 79.34443947 411.66897415 78.48201942 412.53214645 C75.73960622 415.28378129 73.01893634 418.05590103 70.29784584 420.82860947 C68.39190945 422.75174872 66.48127599 424.67019386 64.57067299 426.58869553 C60.07067721 431.11240974 55.58577312 435.65076885 51.10658598 440.19507819 C44.52008275 446.87596801 37.91082106 453.53428594 31.30168343 460.19277287 C30.32672248 461.17508069 29.35176971 462.15739664 28.37682533 463.13972092 C27.66307409 463.85879678 27.66307409 463.85879678 26.93490362 464.59239942 C23.65075035 467.90222281 20.37362748 471.2188826 17.09874916 474.53788376 C16.23242867 475.41415421 15.36610817 476.29042465 14.47353554 477.19324875 C12.85100464 478.83449161 11.23039532 480.47763711 9.61202431 482.12298203 C8.90010933 482.8421933 8.18819435 483.56140457 7.45470619 484.30241013 C6.52566349 485.24452488 6.52566349 485.24452488 5.57785225 486.20567226 C3.3119981 488.31727052 2.00488592 488.6625143 -1.10840416 489.16064072 C-14.10932793 487.48310217 -29.98037985 465.12779409 -39.06529808 456.12718773 C-42.9147855 452.31360455 -46.7726857 448.5094713 -50.65186119 444.7260704 C-54.42222021 441.04847272 -58.17008685 437.34930315 -61.90308189 433.63379669 C-63.3243356 432.22662324 -64.75333665 430.82722912 -66.19019127 429.43598938 C-68.19630665 427.49057508 -70.17224479 425.51866678 -72.14356041 423.53808212 C-72.73879005 422.97363892 -73.3340197 422.40919571 -73.94728661 421.82764816 C-76.85135233 418.84863105 -78.4233279 416.48199593 -78.83783531 412.28013229 C-78.3868568 406.18994551 -74.37391655 402.88844872 -70.15234947 398.87133408 C-69.31996758 398.04406311 -68.48758568 397.21679214 -67.62998009 396.36445236 C-64.87734321 393.63844584 -62.09469043 390.94528826 -59.31152916 388.25048447 C-57.38801144 386.35936955 -55.47189812 384.460827 -53.55585289 382.56214523 C-49.0230748 378.07792562 -44.4695665 373.61544987 -39.90666842 369.16190106 C-31.74476794 361.19495608 -23.61138147 353.19906351 -15.49659228 345.1841498 C-12.19429779 341.92465488 -8.87381398 338.68441799 -5.54865074 335.44822311 C-3.80934667 333.73944012 -2.07045351 332.03023874 -0.33203697 330.32055283 C0.45774544 329.55929092 1.24752785 328.79802902 2.06124306 328.01369858 C8.00150542 322.13460371 12.82122948 315.83784921 13.14940834 307.14110947 C13.15344402 305.7101232 13.15042701 304.27910542 13.14159584 302.84814072 C13.13966225 302.0912999 13.13772865 301.33445908 13.13573647 300.55468369 C13.09101807 294.6332234 12.70923785 288.76732306 12.25097084 282.86376572 C11.28478076 269.65916802 13.05375085 259.05856518 20.01659584 247.66064072 C20.69613096 246.33381961 21.36675207 245.00225366 22.01659584 243.66064072 C21.41202553 242.95810165 20.80745522 242.25556259 20.18456459 241.53173447 C18.00979079 238.65162863 16.68826326 236.05460155 15.32909584 232.72314072 C14.91272865 231.72411728 14.49636147 230.72509384 14.06737709 229.69579697 C11.06523358 221.02417797 11.79175243 212.04440886 12.51659584 203.03564072 C14.51453594 184.41198336 14.51453594 184.41198336 7.53342533 167.81120586 C3.17314753 162.84877714 -1.39411295 158.16324388 -6.12183189 153.55150986 C-7.73923835 151.96372818 -9.35653803 150.37583775 -10.97374535 148.78785324 C-11.82034155 147.95835222 -12.66693775 147.1288512 -13.53918839 146.27421379 C-18.05011913 141.84807117 -22.54173992 137.40238673 -27.03613853 132.95946884 C-32.7413598 127.32036689 -38.45181069 121.68718068 -44.18823814 116.07983017 C-48.83971245 111.5328875 -53.46732343 106.96246573 -58.08141327 102.37758827 C-59.84012109 100.63800335 -61.60685627 98.90649505 -63.38168716 97.18336296 C-65.85929498 94.7757622 -68.30745335 92.34152303 -70.75073814 89.89916611 C-71.48779991 89.19603287 -72.22486168 88.49289963 -72.98425865 87.76845932 C-76.26194043 84.4367598 -78.44936902 81.8922766 -78.84059715 77.12267685 C-78.34247328 71.65982598 -75.29940798 68.71419077 -71.50098228 65.0295372 C-70.46687218 63.97418022 -70.46687218 63.97418022 -69.41187096 62.8975029 C-67.13471524 60.58592903 -64.82645698 58.30861842 -62.51465416 56.03173447 C-60.91817051 54.43172642 -59.32309717 52.83031004 -57.72937584 51.22755051 C-54.38757226 47.87699909 -51.03032147 44.54297924 -47.66113853 41.21996689 C-43.3455751 36.96129968 -39.06914579 32.66569205 -34.80335808 28.357234 C-31.51682434 25.04566777 -28.21125625 21.75365063 -24.8995266 18.46729851 C-23.31497174 16.89058938 -21.73618535 15.30806091 -20.16335106 13.71965981 C-17.9614184 11.50210049 -15.73538677 9.31196619 -13.50098228 7.12719345 C-12.85649132 6.46807968 -12.21200035 5.80896591 -11.54797935 5.129879 C-7.96068609 1.68218725 -5.13317272 -0.46147271 0 0 Z " fill="#020101" transform="translate(77.9834041595459,11.339359283447266)"/>
<path d="M0 0 C1.12148437 -0.05607422 1.12148437 -0.05607422 2.265625 -0.11328125 C9.1800096 1.0717312 14.35397848 7.62638008 19.07519531 12.36303711 C19.88906204 13.17179291 20.70292877 13.98054871 21.54145813 14.81381226 C24.22553153 17.48400941 26.90213393 20.16154843 29.578125 22.83984375 C30.97717812 24.23599117 32.37623393 25.63213595 33.77562881 27.02794081 C38.17813007 31.41936362 42.5753037 35.81607136 46.96923828 40.21606445 C51.47294407 44.72578575 55.9856934 49.22630645 60.50307202 53.72232813 C64.40264462 57.60415399 68.29624395 61.49190375 72.18533587 65.38422972 C74.49837791 67.6990668 76.81414584 70.01104318 79.13443756 72.31861687 C96.91800252 90.01668953 96.91800252 90.01668953 103.55950928 100.06446838 C106.49528923 103.07736686 108.61648519 103.22337748 112.75 103.3125 C115.41666667 101.97916667 115.41666667 101.97916667 116.75 99.3125 C116.57219689 93.18570105 114.52822849 89.99714141 110.75 85.5 C105.77779451 79.37451907 104.34092189 76.29935738 104.3984375 68.3046875 C104.93096075 63.77232292 106.33049153 62.26571186 109.75 59.3125 C112.58993271 57.63303261 114.76720933 56.99603092 118.0625 56.9375 C118.78050781 56.90914062 119.49851562 56.88078125 120.23828125 56.8515625 C126.86627123 58.06789659 130.68478712 61.9119815 134.5 67.1875 C135.36102382 68.35487191 136.22303763 69.52151415 137.0859375 70.6875 C137.74287598 71.58662109 137.74287598 71.58662109 138.41308594 72.50390625 C140.58865541 75.44704333 142.85613912 78.31604919 145.125 81.1875 C145.5797168 81.7654834 146.03443359 82.3434668 146.50292969 82.93896484 C149.89645602 87.24795962 153.32015932 91.53239075 156.75 95.8125 C158.25178742 97.69046472 159.75333637 99.56861994 161.25488281 101.44677734 C162.25201216 102.69107233 163.25136602 103.93358792 164.25292969 105.17431641 C181.94116568 127.09033077 181.94116568 127.09033077 180.75 142.3125 C180.17685068 145.6456488 179.46689194 148.94517462 178.75 152.25 C176.00536237 165.15015627 174.66008037 178.30912687 181.88671875 190.1796875 C183.92108562 191.65463012 183.92108562 191.65463012 187.49609375 191.1328125 C191.00617746 191.00581611 192.68250935 191.58449236 195.41015625 193.8046875 C196.57239765 194.90327841 197.70632658 196.03247299 198.8125 197.1875 C199.39467285 197.77813232 199.9768457 198.36876465 200.57666016 198.97729492 C204.63353214 203.41206567 204.63353214 203.41206567 205.11328125 207.12109375 C204.625 209.625 204.625 209.625 203.96484375 212.0234375 C203.50368834 214.43711769 203.50368834 214.43711769 205.19140625 216.6015625 C206.47675 217.98500489 207.80585802 219.32963502 209.18359375 220.62109375 C210.75 222.3125 210.75 222.3125 210.75 225.3125 C209.06124348 227.28279929 207.36587908 229.0746 205.51757812 230.88549805 C204.9616246 231.44188965 204.40567108 231.99828125 203.83287048 232.5715332 C201.98935068 234.41295924 200.13542415 236.24352632 198.28125 238.07421875 C197.0026441 239.34723081 195.72469797 240.62090584 194.4473877 241.8952179 C191.0804878 245.25065244 187.70467651 248.59698175 184.32696533 251.94152832 C180.88314919 255.35468013 177.44778894 258.77631909 174.01171875 262.19726562 C167.26608694 268.91070345 160.51101565 275.6145578 153.75 282.3125 C149.60225048 278.84629881 145.66833049 275.3269442 141.96484375 271.37890625 C127.04314839 254.73440012 127.04314839 254.73440012 106.62080383 247.21243286 C105.79888046 247.22370209 104.97695709 247.23497131 104.13012695 247.24658203 C103.19517899 247.25634064 102.26023102 247.26609924 101.29695129 247.27615356 C99.78290962 247.29801224 99.78290962 247.29801224 98.23828125 247.3203125 C96.09701002 247.33783804 93.95573366 247.35474542 91.81445312 247.37109375 C88.44166849 247.40198051 85.069141 247.43740848 81.6965332 247.48388672 C78.43958406 247.52642373 75.18293348 247.54972845 71.92578125 247.5703125 C70.92654129 247.58893341 69.92730133 247.60755432 68.89778137 247.6267395 C56.89291332 247.67035773 51.18200162 243.60644206 42.75 235.3125 C42.171362 234.74757717 41.592724 234.18265434 40.99655151 233.60061264 C35.9944042 228.70967373 31.04173703 223.7698484 26.09375 218.82421875 C24.49864754 217.23233477 22.90347214 215.64052388 21.30822754 214.04878235 C17.98496429 210.73147306 14.66373978 207.41213798 11.34375 204.09155273 C7.08734417 199.83504463 2.82406071 195.58549636 -1.44095612 191.33761883 C-4.72826113 188.06141253 -8.01103123 184.78069149 -11.29252625 181.49866676 C-12.86341565 179.92895749 -14.43592704 178.36086969 -16.01008606 176.79443932 C-18.2022458 174.61205095 -20.38801025 172.42344982 -22.57226562 170.2331543 C-23.2226178 169.58842163 -23.87296997 168.94368896 -24.54302979 168.27941895 C-25.13714661 167.68110764 -25.73126343 167.08279633 -26.34338379 166.46635437 C-27.11756527 165.69299004 -27.11756527 165.69299004 -27.90738678 164.90400219 C-30.16908997 162.22303232 -31.16078256 159.89878602 -31.6875 156.4375 C-31.07244681 152.0442629 -29.33098355 150.46684031 -26.25 147.3125 C-23.14046621 145.7577331 -20.68733239 146.02605563 -17.25 146.3125 C-11.68253997 149.40017625 -7.62528785 153.78997796 -3.25390625 158.359375 C-1.71102991 159.94213131 -0.16738688 161.52414055 1.37695312 163.10546875 C3.79213988 165.58885886 6.2014838 168.07709708 8.59790039 170.57861328 C10.92317717 173.00062804 13.26996019 175.39998865 15.62109375 177.796875 C16.3317247 178.54990906 17.04235565 179.30294312 17.77452087 180.07879639 C21.9559784 184.33722707 21.9559784 184.33722707 27.63696289 185.84863281 C30.65131938 185.50314123 30.65131938 185.50314123 32.6875 184.25 C34.45097446 181.03425246 34.23480432 178.94323078 33.75 175.3125 C31.72182127 172.27806062 29.15584532 169.86459957 26.52978516 167.34521484 C25.37880592 166.19993065 25.37880592 166.19993065 24.20457458 165.0315094 C21.66518032 162.51227998 19.1022564 160.01842782 16.5390625 157.5234375 C14.77092007 155.77597372 13.0045343 154.02673083 11.23983765 152.27578735 C7.06471533 148.13993251 2.8754186 144.01892447 -1.32214129 139.90585101 C-9.2825992 132.10497987 -17.21482969 124.27556339 -25.13786697 116.4366951 C-27.7440734 113.86491373 -30.36064299 111.30403691 -32.97860718 108.74423218 C-34.57638229 107.17013692 -36.17386133 105.59574107 -37.77099609 104.02099609 C-38.50251389 103.31126144 -39.23403168 102.60152679 -39.98771667 101.87028503 C-44.46848749 97.42973991 -46.80789078 94.29673721 -47.75 87.9375 C-47.0788294 83.07151315 -44.8070446 80.57466007 -41.25 77.3125 C-38.17805092 75.77652546 -35.64755707 76.0859962 -32.25 76.3125 C-26.42549611 78.52868973 -22.76802661 82.43217155 -18.51977539 86.81323242 C-17.76936478 87.57444901 -17.01895416 88.33566559 -16.24580383 89.11994934 C-14.6220636 90.76844134 -13.00167781 92.42024272 -11.38429451 94.07497215 C-8.82382566 96.6923288 -6.25236968 99.29840279 -3.67735291 101.90144348 C3.64064287 109.30188202 10.94309519 116.71743402 18.22631836 124.15209961 C22.68573427 128.70265875 27.16199022 133.23606557 31.6492939 137.75911903 C33.35552094 139.48582962 35.05514702 141.21908862 36.74799919 142.9589138 C39.11302562 145.38876054 41.49878965 147.79628793 43.89038086 150.19995117 C44.58514526 150.92459564 45.27990967 151.64924011 45.99572754 152.39584351 C49.32776021 155.70107227 50.8458297 157.19313011 55.62013245 157.82344055 C58.65003453 157.50730808 58.65003453 157.50730808 60.6875 156.25 C62.36558606 153.18996071 62.05779419 150.74536302 61.75 147.3125 C60.05158001 144.5970921 60.05158001 144.5970921 57.51150513 142.25241089 C56.82758503 141.56269437 56.82758503 141.56269437 56.12984836 140.85904419 C54.60281685 139.32751923 53.05222611 137.82237387 51.50048828 136.31591797 C50.39877619 135.22109414 49.29862442 134.12469825 48.19992065 133.02685547 C45.83307168 130.66857176 43.45558435 128.32177166 41.06918716 125.98327255 C37.29579949 122.28548201 33.54715934 118.56326115 29.80148315 114.83743286 C23.87433315 108.94752471 17.93084907 103.07441602 11.98023307 97.20822537 C1.32360052 86.70217583 -9.30983615 76.17271444 -19.93013203 65.62994111 C-23.65795428 61.93076146 -27.39438516 58.24056551 -31.13808036 54.55745292 C-33.46550375 52.26515797 -35.78687078 49.96679994 -38.10682297 47.66694641 C-39.18372658 46.60204628 -40.26324165 45.53977959 -41.34554291 44.48036575 C-42.82320772 43.03333678 -44.2913284 41.57724358 -45.75753784 40.11862183 C-46.58162077 39.30639601 -47.4057037 38.49417019 -48.25475883 37.65733147 C-51.02904233 34.39696006 -52.08695379 31.58969535 -52.625 27.375 C-52.02375256 22.46481255 -49.72795875 19.51084493 -45.9375 16.4375 C-42.41108808 14.96132757 -40.04611 14.84631105 -36.25 15.3125 C-32.11575972 17.77120346 -28.76881327 20.55402748 -25.39955139 23.96954346 C-24.47586258 24.90059906 -23.55217377 25.83165466 -22.60049438 26.79092407 C-21.59435393 27.81530241 -20.58828325 28.83974927 -19.58227539 29.86425781 C-18.50950702 30.94906174 -17.43623609 32.0333689 -16.36250305 33.11721802 C-14.05837281 35.44454677 -11.75716868 37.77471692 -9.45802498 40.10697174 C-5.82136586 43.79467235 -2.17429375 47.47195392 1.47499084 51.14715576 C11.84830448 61.5965043 22.21487914 72.05240074 32.55444336 82.53515625 C38.27055815 88.33026065 43.99904273 94.1128267 49.74177748 99.88155627 C52.77811059 102.93273466 55.80754073 105.99014066 58.82172966 109.06320953 C61.65424808 111.9510108 64.50256648 114.82221826 67.36384773 117.68151474 C68.41043649 118.73322268 69.45101603 119.79095032 70.48501587 120.85503769 C71.89786868 122.30722503 73.33469817 123.73596959 74.77256775 125.16339111 C75.56950011 125.96937366 76.36643248 126.77535622 77.18751431 127.60576248 C80.54913684 129.8447632 82.78970289 129.70221853 86.75 129.3125 C88.83333333 128.39583333 88.83333333 128.39583333 89.75 126.3125 C90.37271587 123.3899263 90.5467574 122.12041679 89.75 119.3125 C87.09437862 115.60865012 83.84843018 112.5386822 80.58618164 109.36987305 C79.60108491 108.38838975 78.61753562 107.40535125 77.63542175 106.42088318 C74.96895757 103.75667902 72.28156188 101.11453244 69.59002233 98.47569633 C66.77764156 95.71084272 63.98550048 92.92570538 61.19126892 90.14253235 C55.89730024 84.87547296 50.58617077 79.62608731 45.26828235 74.38319093 C37.45683523 66.68024994 29.67250647 58.94997981 21.88688564 51.22095203 C20.73941978 50.08192257 19.59193895 48.9429082 18.44444275 47.8039093 C17.88441337 47.24798168 17.32438398 46.69205407 16.74738401 46.11928016 C13.41198428 42.80944871 10.07200001 39.50432925 6.7278043 36.20338571 C4.65169705 34.1537955 2.57737228 32.10240678 0.50325203 30.05080605 C-0.92254883 28.64198483 -2.35096783 27.23581488 -3.77944946 25.82971191 C-4.62223953 24.9956633 -5.4650296 24.16161469 -6.33335876 23.30229187 C-7.06987136 22.5757928 -7.80638395 21.84929373 -8.56521511 21.10077953 C-11.82228682 17.64362918 -11.6358666 14.43970527 -11.609375 9.86328125 C-11.03039966 5.75381496 -9.25085071 4.09900423 -6.25 1.3125 C-3.97885524 0.17692762 -2.52706381 0.08165682 0 0 Z " fill="#FCD0A2" transform="translate(228.25,145.6875)"/>
<path d="M0 0 C3.73248999 3.14762294 7.41441809 6.2762183 10.796875 9.8046875 C21.52950036 20.94114738 21.52950036 20.94114738 34 30 C34.73476562 30.44859375 35.46953125 30.8971875 36.2265625 31.359375 C47.67742844 37.104483 62.29673229 34.37476156 74.234375 31.6875 C83.20168924 30.050314 93.98881836 28.8853484 101.86328125 34.22265625 C106.39854174 37.9951307 110.75024048 41.90911 115 46 C114.67 46.99 114.34 47.98 114 49 C112.96875 48.835 111.9375 48.67 110.875 48.5 C97.92950784 46.81142133 97.92950784 46.81142133 85.8125 50.53125 C80.53327979 54.80923879 76.25556623 59.54087851 74 66 C73.39414063 65.7834375 72.78828125 65.566875 72.1640625 65.34375 C64.29966104 62.7303489 57.19364813 61.43246711 49.3125 64.625 C40.51244979 69.07166848 36.08790609 74.73628172 33 84 C31.85122055 92.50096792 34.62184214 99.30262601 38 107 C37.37170288 107.62044189 37.37170288 107.62044189 36.73071289 108.25341797 C34.83870591 110.12466831 32.95056815 111.99977585 31.0625 113.875 C30.40314453 114.52597656 29.74378906 115.17695313 29.06445312 115.84765625 C28.12182617 116.78544922 28.12182617 116.78544922 27.16015625 117.7421875 C26.28822632 118.60626221 26.28822632 118.60626221 25.39868164 119.48779297 C23.37695217 121.67361813 23.01358543 122.87501408 22.6875 125.875 C22.75823557 129.0503077 22.75823557 129.0503077 24.625 131.4375 C26.90266497 133.24011417 26.90266497 133.24011417 29.703125 133.04296875 C34.44474757 131.54295308 36.84962485 128.50256603 40.125 124.875 C41.32385796 123.54887474 42.53433369 122.23313224 43.7578125 120.9296875 C44.2852002 120.34429199 44.81258789 119.75889648 45.35595703 119.15576172 C47 118 47 118 49.06201172 118.19580078 C51.69363277 119.28783401 53.17054231 120.84385343 55 123 C55 123.66 55 124.32 55 125 C53.48733153 125.88488116 51.93782711 126.70706117 50.375 127.5 C43.71307932 131.32706082 40.39715323 136.8085403 38 144 C37.20443284 152.68602836 37.94329866 159.79211078 43.40234375 166.80029297 C49.35056637 173.56476007 55.7921889 179.81375268 62.23242188 186.10546875 C63.10318359 186.96527344 63.97394531 187.82507813 64.87109375 188.7109375 C65.66443115 189.48743652 66.45776855 190.26393555 67.27514648 191.06396484 C69 193 69 193 69 195 C67.5390625 196.2890625 67.5390625 196.2890625 65.625 197.625 C64.99851562 198.07101562 64.37203125 198.51703125 63.7265625 198.9765625 C62 200 62 200 60 200 C59.71382813 200.57621094 59.42765625 201.15242187 59.1328125 201.74609375 C58.41934409 203.16564986 57.68736959 204.57619839 56.9296875 205.97265625 C53.96262319 211.85183923 52.66003137 217.46661256 54 224 C57.43929095 234.04691097 65.01296333 240.65489974 72.39453125 247.8828125 C73.71127384 249.1902136 75.02690499 250.49873496 76.34147644 251.80831909 C79.7811657 255.22904408 83.23560708 258.634476 86.69348145 262.0368042 C90.22862556 265.52052692 93.74941399 269.01869391 97.27148438 272.515625 C104.16711784 279.35785761 111.07844322 286.18399927 118 293 C114.68190877 300.29784312 104.93956615 309.3903273 97.39453125 312.51953125 C88.52444624 314.29933624 79.37038958 313.48026698 70.625 311.5 C57.71683192 308.64068268 43.56044505 307.66977367 32 315 C20.52313683 323.26213972 10.85482944 333.92887344 1 344 C-5.69529866 338.50280742 -11.73696491 332.39046848 -17.83984375 326.2578125 C-18.97305199 325.12273594 -20.10648362 323.98788237 -21.24012756 322.85324097 C-24.20308335 319.88649256 -27.16302193 316.91675198 -30.12231445 313.9463501 C-33.15066856 310.9077114 -36.18190499 307.87195091 -39.21289062 304.8359375 C-45.14473089 298.8934174 -51.07338261 292.947729 -57 287 C-55.21517368 283.14640714 -52.76383479 280.55402292 -49.73046875 277.640625 C-48.66588907 276.59648318 -47.60144016 275.55220802 -46.53710938 274.5078125 C-44.86775505 272.88172596 -43.19599475 271.25821968 -41.52124023 269.63769531 C-30.56794322 259.01375977 -21.96460783 248.77774514 -21.6809082 232.74414062 C-21.69400743 228.53298092 -21.74115278 224.41557075 -22.5 220.265625 C-23.27114973 215.22905332 -23.26601854 210.21317042 -23.3125 205.125 C-23.34150391 204.07441406 -23.37050781 203.02382813 -23.40039062 201.94140625 C-23.47891374 192.28910355 -21.00257327 186.63129174 -14.375 179.625 C-13.92205566 179.13878174 -13.46911133 178.65256348 -13.00244141 178.15161133 C-9.86604625 174.82613548 -6.6070489 171.64094936 -3.3125 168.47265625 C-2.49861816 167.6822998 -1.68473633 166.89194336 -0.84619141 166.07763672 C0.77840406 164.50632773 2.41649103 162.94882775 4.06884766 161.40673828 C8.83646088 156.98152158 8.83646088 156.98152158 11.08203125 151.078125 C11.21397442 148.10335891 11.21397442 148.10335891 10.0625 146.0625 C6.69917871 144.32987994 3.61442925 144.13444035 0 145 C-3.25697431 147.27637195 -5.82990211 150.07278158 -8.5 153 C-9.22703125 153.763125 -9.9540625 154.52625 -10.703125 155.3125 C-12.48820831 157.19153506 -14.25195786 159.08656814 -16 161 C-20.29943268 157.29359252 -22.6634469 153.23700478 -23.24804688 147.61425781 C-23.33106995 144.94435731 -23.31103745 142.29538863 -23.25 139.625 C-23.24484375 138.73039063 -23.2396875 137.83578125 -23.234375 136.9140625 C-23.17631674 131.92105223 -22.83765694 127.04078863 -22.23583984 122.0859375 C-20.66824897 108.22103436 -22.61780716 97.17080641 -30.74633789 85.82055664 C-35.19748102 80.24975645 -40.34278622 75.3502536 -45.4375 70.375 C-46.56255208 69.26503514 -47.68690612 68.1543623 -48.81054688 67.04296875 C-51.53240372 64.35376711 -54.26346543 61.67426076 -57 59 C-55.40752446 55.06532451 -52.69337631 52.42422224 -49.72412109 49.49707031 C-49.18738266 48.96003983 -48.65064423 48.42300934 -48.09764099 47.8697052 C-46.32760717 46.10106141 -44.55060143 44.33960176 -42.7734375 42.578125 C-41.54274656 41.35116534 -40.3124973 40.12376251 -39.08267212 38.89593506 C-35.84843484 35.66932512 -32.60823592 32.44876709 -29.36676025 29.22943115 C-26.05859466 25.94174328 -22.75610054 22.64836932 -19.453125 19.35546875 C-12.97428921 12.89806702 -6.48914131 6.44704432 0 0 Z " fill="#D68954" transform="translate(129,84)"/>
<path d="M0 0 C3.93467549 1.59247554 6.57577776 4.30662369 9.50292969 7.27587891 C10.03996017 7.81261734 10.57699066 8.34935577 11.1302948 8.90235901 C12.89893859 10.67239283 14.66039824 12.44939857 16.421875 14.2265625 C17.64883466 15.45725344 18.87623749 16.6875027 20.10406494 17.91732788 C23.33067488 21.15156516 26.55123291 24.39176408 29.77056885 27.63323975 C33.05825672 30.94140534 36.35163068 34.24389946 39.64453125 37.546875 C46.10193298 44.02571079 52.55295568 50.51085869 59 57 C57.22315262 60.83603736 54.7947773 63.39963488 51.765625 66.2890625 C50.70544078 67.32392339 49.64555475 68.35908983 48.5859375 69.39453125 C46.9268307 71.00438179 45.26474192 72.61085455 43.59667969 74.21142578 C33.45556576 83.96808554 24.64060601 93.91988863 23.7890625 108.6484375 C23.73653171 113.91202281 23.86338401 119.0714152 24.5 124.296875 C25.10158177 129.42946127 25.22038517 134.52341474 25.25 139.6875 C25.2809375 141.05358398 25.2809375 141.05358398 25.3125 142.44726562 C25.34334996 147.75731477 24.91683572 151.37144226 22 156 C17.94569312 152.10277881 14.39364429 147.94504747 10.875 143.5625 C10.30950439 142.86237793 9.74400879 142.16225586 9.16137695 141.44091797 C5.47091175 136.86104084 1.81987948 132.25100441 -1.8125 127.625 C-2.2664917 127.05144775 -2.7204834 126.47789551 -3.18823242 125.88696289 C-5.20391256 123.33317835 -7.15935952 120.7746986 -9.0390625 118.1171875 C-14.61370051 110.43198694 -20.96434665 105.99458848 -30.4609375 104.4296875 C-39.91337787 103.94976227 -47.7774475 106.47034061 -54.97265625 112.7109375 C-58.36555472 116.39560856 -60.28275008 120.32526411 -62 125 C-66.60409633 121.14902009 -70.98167412 117.16072823 -75.21069336 112.90283203 C-75.78717621 112.32649521 -76.36365906 111.75015839 -76.95761108 111.15635681 C-78.83740595 109.27587265 -80.71364693 107.39188591 -82.58984375 105.5078125 C-83.90241431 104.19337426 -85.21520776 102.87915856 -86.5282135 101.56515503 C-89.96463602 98.12493488 -93.39804337 94.68172107 -96.83081055 91.237854 C-100.34175501 87.71663589 -103.8555717 84.19828651 -107.36914062 80.6796875 C-114.24889212 73.78924732 -121.12545855 66.89563795 -128 60 C-124.81721757 56.112217 -121.85704924 52.86431911 -117.875 49.75 C-113.84896726 46.5475971 -110.05242887 43.21936607 -106.3125 39.6875 C-98.04305277 32.21944583 -92.32487804 30.25957638 -81.19921875 30.66015625 C-77.28424148 30.90456256 -73.57746054 31.62765621 -69.75 32.5 C-57.87080958 35.11467895 -43.93091775 36.40096908 -32.76953125 30.78125 C-21.93113878 23.81043623 -5.77454046 11.54908093 0 0 Z " fill="#F5A86B" transform="translate(381,84)"/>
<path d="M0 0 C3.73248999 3.14762294 7.41441809 6.2762183 10.796875 9.8046875 C21.52950036 20.94114738 21.52950036 20.94114738 34 30 C34.73476562 30.44859375 35.46953125 30.8971875 36.2265625 31.359375 C47.67742844 37.104483 62.29673229 34.37476156 74.234375 31.6875 C83.20168924 30.050314 93.98881836 28.8853484 101.86328125 34.22265625 C106.39854174 37.9951307 110.75024048 41.90911 115 46 C114.67 46.99 114.34 47.98 114 49 C112.96875 48.835 111.9375 48.67 110.875 48.5 C97.92950784 46.81142133 97.92950784 46.81142133 85.8125 50.53125 C80.53327979 54.80923879 76.25556623 59.54087851 74 66 C73.39414063 65.7834375 72.78828125 65.566875 72.1640625 65.34375 C64.29966104 62.7303489 57.19364813 61.43246711 49.3125 64.625 C40.51244979 69.07166848 36.08790609 74.73628172 33 84 C31.85122055 92.50096792 34.62184214 99.30262601 38 107 C37.37170288 107.62044189 37.37170288 107.62044189 36.73071289 108.25341797 C34.83870591 110.12466831 32.95056815 111.99977585 31.0625 113.875 C30.40314453 114.52597656 29.74378906 115.17695313 29.06445312 115.84765625 C28.12182617 116.78544922 28.12182617 116.78544922 27.16015625 117.7421875 C26.28822632 118.60626221 26.28822632 118.60626221 25.39868164 119.48779297 C23.90048064 120.96652475 23.90048064 120.96652475 23 123 C23.16048828 123.97066406 23.16048828 123.97066406 23.32421875 124.9609375 C23.86484795 128.55350572 23.9435245 131.4441096 22.00390625 134.64257812 C20.65504858 136.4116726 19.22328178 138.01590261 17.6875 139.625 C17.20821045 140.15786621 16.7289209 140.69073242 16.23510742 141.23974609 C13.68764012 143.70582079 12.06271812 144.97938236 8.43286133 145.04980469 C7.50626709 144.97922852 6.57967285 144.90865234 5.625 144.8359375 C2.22383789 144.66131067 0.5375294 144.66618625 -2.3815918 146.47900391 C-4.63082299 148.55217347 -6.66792641 150.7030018 -8.6875 153 C-9.40099609 153.763125 -10.11449219 154.52625 -10.84960938 155.3125 C-12.59412946 157.18581016 -14.30777924 159.07953215 -16 161 C-20.29943268 157.29359252 -22.6634469 153.23700478 -23.24804688 147.61425781 C-23.33106995 144.94435731 -23.31103745 142.29538863 -23.25 139.625 C-23.24484375 138.73039063 -23.2396875 137.83578125 -23.234375 136.9140625 C-23.17631674 131.92105223 -22.83765694 127.04078863 -22.23583984 122.0859375 C-20.66824897 108.22103436 -22.61780716 97.17080641 -30.74633789 85.82055664 C-35.19748102 80.24975645 -40.34278622 75.3502536 -45.4375 70.375 C-46.56255208 69.26503514 -47.68690612 68.1543623 -48.81054688 67.04296875 C-51.53240372 64.35376711 -54.26346543 61.67426076 -57 59 C-55.40752446 55.06532451 -52.69337631 52.42422224 -49.72412109 49.49707031 C-49.18738266 48.96003983 -48.65064423 48.42300934 -48.09764099 47.8697052 C-46.32760717 46.10106141 -44.55060143 44.33960176 -42.7734375 42.578125 C-41.54274656 41.35116534 -40.3124973 40.12376251 -39.08267212 38.89593506 C-35.84843484 35.66932512 -32.60823592 32.44876709 -29.36676025 29.22943115 C-26.05859466 25.94174328 -22.75610054 22.64836932 -19.453125 19.35546875 C-12.97428921 12.89806702 -6.48914131 6.44704432 0 0 Z " fill="#FECDBE" transform="translate(129,84)"/>
<path d="M0 0 C5.47313966 4.56147547 10.53954809 9.40741321 15.55859375 14.4609375 C16.34774673 15.25150543 17.13689972 16.04207336 17.94996643 16.8565979 C20.44818661 19.36037626 22.94289044 21.86762475 25.4375 24.375 C27.13974208 26.08226248 28.84221373 27.78929609 30.54492188 29.49609375 C34.69927363 33.66141898 38.85075081 37.82959219 43 42 C40.45028416 47.36359144 36.93735733 51.28181234 32.44335938 55.08227539 C27.40681821 59.4491445 22.72913112 64.14557772 18.03125 68.87109375 C17.11033569 69.793423 16.18942139 70.71575226 15.24060059 71.66603088 C12.81852446 74.09188477 10.39946921 76.52072852 7.9810791 78.95025635 C5.50226163 81.43939116 3.02053203 83.92561895 0.5390625 86.41210938 C-4.31010924 91.27193458 -9.15608863 96.13493178 -14 101 C-17.35999018 99.54131246 -19.55203106 97.69131052 -22.12597656 95.10107422 C-22.92650452 94.3003952 -23.72703247 93.49971619 -24.55181885 92.67477417 C-25.83327789 91.37783127 -25.83327789 91.37783127 -27.140625 90.0546875 C-28.02280701 89.1696756 -28.90498901 88.2846637 -29.81390381 87.37283325 C-32.15194543 85.02549869 -34.48555874 82.67393215 -36.81713867 80.32019043 C-39.19996526 77.91686073 -41.58850348 75.51922233 -43.9765625 73.12109375 C-48.65631862 68.41928533 -53.33031867 63.71181336 -58 59 C-52.4416326 52.22284035 -46.24368339 46.11649647 -40.0390625 39.94140625 C-38.88156574 38.78577771 -37.72429189 37.62992586 -36.56723022 36.47386169 C-33.54129782 33.45172262 -30.51237303 30.43260047 -27.48278809 27.41412354 C-24.38382705 24.32544553 -21.28774287 21.23388665 -18.19140625 18.14257812 C-12.13039606 12.09224902 -6.06621753 6.04510807 0 0 Z " fill="#FD4EB6" transform="translate(450,380)"/>
<path d="M0 0 C1.55656433 1.47767639 1.55656433 1.47767639 3.21166992 3.51586914 C6.81543933 7.81351775 10.64301236 11.78804696 14.61328125 15.74609375 C15.65671944 16.79096703 15.65671944 16.79096703 16.72123718 17.85694885 C18.17629346 19.31267999 19.63259063 20.7671718 21.09008789 22.22045898 C23.32750895 24.45247268 25.55947677 26.68984135 27.79101562 28.92773438 C29.21061654 30.34667534 30.63052717 31.76530654 32.05078125 33.18359375 C33.05229973 34.18814857 33.05229973 34.18814857 34.0740509 35.21299744 C34.69197006 35.82776443 35.30988922 36.44253143 35.9465332 37.07592773 C36.48945511 37.61805405 37.03237701 38.16018036 37.5917511 38.71873474 C38.99184264 40.10889393 38.99184264 40.10889393 41 41 C39.40752446 44.93467549 36.69337631 47.57577776 33.72412109 50.50292969 C33.18738266 51.03996017 32.65064423 51.57699066 32.09764099 52.1302948 C30.32760717 53.89893859 28.55060143 55.66039824 26.7734375 57.421875 C25.54274656 58.64883466 24.3124973 59.87623749 23.08267212 61.10406494 C19.84843484 64.33067488 16.60823592 67.55123291 13.36676025 70.77056885 C10.05859466 74.05825672 6.75610054 77.35163068 3.453125 80.64453125 C-3.02571079 87.10193298 -9.51085869 93.55295568 -16 100 C-19.35999018 98.54131246 -21.55203106 96.69131052 -24.12597656 94.10107422 C-24.92650452 93.3003952 -25.72703247 92.49971619 -26.55181885 91.67477417 C-27.83327789 90.37783127 -27.83327789 90.37783127 -29.140625 89.0546875 C-30.02280701 88.1696756 -30.90498901 87.2846637 -31.81390381 86.37283325 C-34.15194543 84.02549869 -36.48555874 81.67393215 -38.81713867 79.32019043 C-41.19996526 76.91686073 -43.58850348 74.51922233 -45.9765625 72.12109375 C-50.65631862 67.41928533 -55.33031867 62.71181336 -60 58 C-54.51142598 51.33458703 -48.45143227 45.26934817 -42.36328125 39.16015625 C-41.80986746 38.60391508 -41.25645367 38.04767391 -40.68626976 37.47457695 C-37.76773702 34.54115192 -34.8464187 31.61053658 -31.92260742 28.68237305 C-28.90287172 25.65711231 -25.89255389 22.62265438 -22.88424397 19.58603764 C-20.56531274 17.2485334 -18.23975004 14.91771498 -15.91228294 12.58871269 C-14.79859683 11.47199638 -13.68741655 10.35277527 -12.57879066 9.23103523 C-11.03514634 7.67041404 -9.4824047 6.11944645 -7.92700195 4.57055664 C-7.0457515 3.68566055 -6.16450104 2.80076447 -5.25654602 1.88905334 C-3 0 -3 0 0 0 Z " fill="#FBBF63" transform="translate(78,31)"/>
<path d="M0 0 C3.92323237 1.59254345 6.57272552 4.29020652 9.50292969 7.24414062 C10.03996017 7.77766647 10.57699066 8.31119232 11.1302948 8.86088562 C12.89921071 10.62101769 14.6607329 12.38834218 16.421875 14.15625 C17.64897906 15.38200685 18.87637988 16.60746667 20.10406494 17.8326416 C22.67274063 20.3983709 25.23776892 22.96767794 27.80029297 25.53955078 C31.0912968 28.84197285 34.39122921 32.13530395 37.69392014 35.42603302 C40.22818244 37.95308419 42.75768146 40.48485982 45.28574371 43.01811218 C46.50116249 44.23486828 47.71807737 45.45013177 48.93648529 46.66389465 C50.63408224 48.35643605 52.32517489 50.05521458 54.01464844 51.75585938 C54.52265488 52.25981735 55.03066132 52.76377533 55.55406189 53.28300476 C59 56.77146797 59 56.77146797 59 59 C57.53894043 60.4410553 57.53894043 60.4410553 55.51367188 62.11743164 C51.04881441 65.91642218 46.90960763 69.96240144 42.78125 74.12109375 C42.03790405 74.86585464 41.29455811 75.61061554 40.52868652 76.37794495 C38.18340699 78.72876745 35.84165164 81.08306431 33.5 83.4375 C31.89867039 85.04385199 30.29711002 86.64997397 28.6953125 88.25585938 C24.79420527 92.16791985 20.8959758 96.08282952 17 100 C13.06532451 98.40752446 10.42422224 95.69337631 7.49707031 92.72412109 C6.96003983 92.18738266 6.42300934 91.65064423 5.8697052 91.09764099 C4.10106141 89.32760717 2.33960176 87.55060143 0.578125 85.7734375 C-0.64883466 84.54274656 -1.87623749 83.3124973 -3.10406494 82.08267212 C-6.33067488 78.84843484 -9.55123291 75.60823592 -12.77056885 72.36676025 C-16.05825672 69.05859466 -19.35163068 65.75610054 -22.64453125 62.453125 C-29.10193298 55.97428921 -35.55295568 49.48914131 -42 43 C-37.43852453 37.52686034 -32.59258679 32.46045191 -27.5390625 27.44140625 C-26.74849457 26.65225327 -25.95792664 25.86310028 -25.1434021 25.05003357 C-22.63962374 22.55181339 -20.13237525 20.05710956 -17.625 17.5625 C-15.91773752 15.86025792 -14.21070391 14.15778627 -12.50390625 12.45507812 C-8.33858102 8.30072637 -4.17040781 4.14924919 0 0 Z " fill="#5E97D5" transform="translate(60,381)"/>
<path d="M0 0 C3.93467549 1.59247554 6.57577776 4.30662369 9.50292969 7.27587891 C10.03996017 7.81261734 10.57699066 8.34935577 11.1302948 8.90235901 C12.89893859 10.67239283 14.66039824 12.44939857 16.421875 14.2265625 C17.64883466 15.45725344 18.87623749 16.6875027 20.10406494 17.91732788 C23.33067488 21.15156516 26.55123291 24.39176408 29.77056885 27.63323975 C33.05825672 30.94140534 36.35163068 34.24389946 39.64453125 37.546875 C46.10193298 44.02571079 52.55295568 50.51085869 59 57 C54.43852453 62.47313966 49.59258679 67.53954809 44.5390625 72.55859375 C43.74849457 73.34774673 42.95792664 74.13689972 42.1434021 74.94996643 C39.63962374 77.44818661 37.13237525 79.94289044 34.625 82.4375 C32.91773752 84.13974208 31.21070391 85.84221373 29.50390625 87.54492188 C25.33858102 91.69927363 21.17040781 95.85075081 17 100 C13.07676763 98.40745655 10.42727448 95.70979348 7.49707031 92.75585938 C6.96003983 92.22233353 6.42300934 91.68880768 5.8697052 91.13911438 C4.10078929 89.37898231 2.3392671 87.61165782 0.578125 85.84375 C-0.64897906 84.61799315 -1.87637988 83.39253333 -3.10406494 82.1673584 C-5.67274063 79.6016291 -8.23776892 77.03232206 -10.80029297 74.46044922 C-14.0912968 71.15802715 -17.39122921 67.86469605 -20.69392014 64.57396698 C-23.22818244 62.04691581 -25.75768146 59.51514018 -28.28574371 56.98188782 C-29.50116249 55.76513172 -30.71807737 54.54986823 -31.93648529 53.33610535 C-33.63408224 51.64356395 -35.32517489 49.94478542 -37.01464844 48.24414062 C-37.52265488 47.74018265 -38.03066132 47.23622467 -38.55406189 46.71699524 C-42 43.22853203 -42 43.22853203 -42 41 C-40.53894043 39.5589447 -40.53894043 39.5589447 -38.51367188 37.88256836 C-34.04881441 34.08357782 -29.90960763 30.03759856 -25.78125 25.87890625 C-25.03790405 25.13414536 -24.29455811 24.38938446 -23.52868652 23.62205505 C-21.18340699 21.27123255 -18.84165164 18.91693569 -16.5 16.5625 C-14.89867039 14.95614801 -13.29711002 13.35002603 -11.6953125 11.74414062 C-7.79420527 7.83208015 -3.8959758 3.91717048 0 0 Z " fill="#45CA8B" transform="translate(435,31)"/>
<path d="M0 0 C0.73605469 -0.03738281 1.47210938 -0.07476562 2.23046875 -0.11328125 C8.90400401 0.98719582 12.74409611 4.90756911 16.5625 10.1875 C17.42352382 11.35487191 18.28553763 12.52151415 19.1484375 13.6875 C19.58639648 14.28691406 20.02435547 14.88632813 20.47558594 15.50390625 C22.65115541 18.44704333 24.91863912 21.31604919 27.1875 24.1875 C27.6422168 24.7654834 28.09693359 25.3434668 28.56542969 25.93896484 C31.95895602 30.24795962 35.38265932 34.53239075 38.8125 38.8125 C40.31428742 40.69046472 41.81583637 42.56861994 43.31738281 44.44677734 C44.31451216 45.69107233 45.31386602 46.93358792 46.31542969 48.17431641 C64.00366568 70.09033077 64.00366568 70.09033077 62.8125 85.3125 C62.23935068 88.6456488 61.52939194 91.94517462 60.8125 95.25 C58.06786237 108.15015627 56.72258037 121.30912687 63.94921875 133.1796875 C65.98358562 134.65463012 65.98358562 134.65463012 69.55859375 134.1328125 C73.06867746 134.00581611 74.74500935 134.58449236 77.47265625 136.8046875 C78.63489765 137.90327841 79.76882658 139.03247299 80.875 140.1875 C81.45717285 140.77813232 82.0393457 141.36876465 82.63916016 141.97729492 C86.69603214 146.41206567 86.69603214 146.41206567 87.17578125 150.12109375 C86.6875 152.625 86.6875 152.625 86.02734375 155.0234375 C85.56618834 157.43711769 85.56618834 157.43711769 87.25390625 159.6015625 C88.53925 160.98500489 89.86835802 162.32963502 91.24609375 163.62109375 C92.8125 165.3125 92.8125 165.3125 92.8125 168.3125 C91.28125 170.13671875 91.28125 170.13671875 89.3125 172 C88.33796875 172.93392578 88.33796875 172.93392578 87.34375 173.88671875 C86.8384375 174.35722656 86.333125 174.82773437 85.8125 175.3125 C79.3559746 170.01965069 73.46841489 164.1887127 67.56054688 158.30078125 C65.82347616 156.57341484 64.07600326 154.85704538 62.328125 153.140625 C51.56901348 142.48301725 42.62920889 132.87794391 42.4375 117.125 C42.46109769 111.79710187 42.94494266 106.98968136 44.3125 101.8125 C47.51349319 89.51637712 47.27790723 77.4786386 40.8125 66.3125 C38.40818686 62.48359384 35.84423053 58.80529693 33.16943359 55.1640625 C31.70920199 53.17154784 30.26938478 51.16532527 28.83203125 49.15625 C26.09865298 45.34175313 23.34614231 41.54161343 20.58447266 37.74755859 C19.36896648 36.07720056 18.15518791 34.40558441 16.94287109 32.73291016 C15.07086837 30.15174989 13.19254078 27.57530961 11.3125 25 C10.73733643 24.20577637 10.16217285 23.41155273 9.56958008 22.59326172 C3.73381428 14.63236236 -1.47234379 9.24964025 -11.1875 6.3125 C-5.20263425 0.17013778 -5.20263425 0.17013778 0 0 Z " fill="#FCBB85" transform="translate(346.1875,202.6875)"/>
<path d="M0 0 C4.56030824 3.80475422 8.85089392 7.74969621 13 12 C11.42706854 15.9026507 8.75216569 18.44028096 5.765625 21.2890625 C4.70544078 22.32392339 3.64555475 23.35908983 2.5859375 24.39453125 C0.9268307 26.00438179 -0.73525808 27.61085455 -2.40332031 29.21142578 C-12.54443424 38.96808554 -21.35939399 48.91988863 -22.2109375 63.6484375 C-22.26346829 68.91202281 -22.13661599 74.0714152 -21.5 79.296875 C-20.89841823 84.42946127 -20.77961483 89.52341474 -20.75 94.6875 C-20.729375 95.59822266 -20.70875 96.50894531 -20.6875 97.44726562 C-20.65665004 102.75731477 -21.08316428 106.37144226 -24 111 C-25.18571956 109.81641687 -26.37072411 108.63210936 -27.55224609 107.44433594 C-28.91290831 106.08688608 -30.29371985 104.74971892 -31.67578125 103.4140625 C-36.85221238 97.93854869 -39.66092326 94.49886047 -39.5625 86.625 C-39.37852789 84.08307554 -39.19106313 81.5414013 -39 79 C-39.12106746 76.64304834 -39.28680493 74.28790982 -39.5 71.9375 C-40.67132057 56.43061428 -40.79810238 44.35083848 -30.56787109 31.90332031 C-25.34517367 25.99836521 -19.68483622 20.52086605 -14.0625 15 C-12.19866702 13.16384175 -10.33637112 11.3261849 -8.47691345 9.4855957 C-7.3289282 8.34982253 -6.17827981 7.21673329 -5.02467346 6.08666992 C-2.15191429 3.3189156 -2.15191429 3.3189156 0 0 Z " fill="#E89957" transform="translate(427,129)"/>
<path d="M0 0 C1.13199353 0.9080162 2.25532363 1.82683826 3.375 2.75 C4.00148438 3.26046875 4.62796875 3.7709375 5.2734375 4.296875 C7.08312318 6.08199481 8.00117455 7.67949644 9 10 C-7.50541568 27.3149456 -7.50541568 27.3149456 -17.77734375 28.3984375 C-19.16403256 28.41044058 -20.55101642 28.40170594 -21.9375 28.375 C-23.05729248 28.36629883 -23.05729248 28.36629883 -24.19970703 28.35742188 C-29.08435385 28.24563085 -33.59717686 27.58940593 -38.375 26.5 C-51.28316808 23.64068268 -65.43955495 22.66977367 -77 30 C-88.47686317 38.26213972 -98.14517056 48.92887344 -108 59 C-109.12894876 58.06725891 -110.25300876 57.12859878 -111.375 56.1875 C-112.00148438 55.66542969 -112.62796875 55.14335937 -113.2734375 54.60546875 C-115 53 -115 53 -117 50 C-116.58347168 49.65855957 -116.16694336 49.31711914 -115.73779297 48.96533203 C-111.05183413 45.00104266 -106.72549737 40.75779979 -102.4453125 36.3671875 C-101.85482117 35.76408752 -101.26432983 35.16098755 -100.65594482 34.53961182 C-98.18906325 32.01874167 -95.72356549 29.4969828 -93.27783203 26.95556641 C-84.0464269 17.38053014 -75.05362838 8.7007874 -61 8 C-53.81900841 8.48994545 -46.77822204 9.5606538 -39.75 11.125 C-27.48482237 13.66828098 -16.39861311 11.74481464 -5.875 4.875 C-3.70672468 3.34211671 -1.88088435 1.88088435 0 0 Z " fill="#C27843" transform="translate(238,369)"/>
<path d="M0 0 C4.49529887 3.73831849 8.67374718 7.61825419 12.74560547 11.81152344 C19.35925181 18.62011526 25.81045985 25.09144281 34 30 C34.73476562 30.44859375 35.46953125 30.8971875 36.2265625 31.359375 C47.67742844 37.104483 62.29673229 34.37476156 74.234375 31.6875 C83.20168924 30.050314 93.98881836 28.8853484 101.86328125 34.22265625 C106.39854174 37.9951307 110.75024048 41.90911 115 46 C114.67 46.99 114.34 47.98 114 49 C112.96875 48.835 111.9375 48.67 110.875 48.5 C103.91020374 47.62471142 95.70602219 46.76465927 89 49 C89 48.34 89 47.68 89 47 C77.77045819 46.58987749 77.77045819 46.58987749 66.75 48.5 C61.10905669 49.95414105 55.73632926 50.432627 49.9375 50.5625 C49.13473633 50.60117188 48.33197266 50.63984375 47.50488281 50.6796875 C35.26507711 50.73908001 27.43780196 43.91209273 19.171875 35.7578125 C16.00352752 32.5733644 12.8752221 29.35169449 9.75 26.125 C8.11990243 24.46475746 6.48840291 22.80589019 4.85546875 21.1484375 C0.88732938 17.11468566 -3.06311583 13.06424999 -7 9 C-5.27845212 5.23511958 -3.00765886 2.84936103 0 0 Z " fill="#FBAD9C" transform="translate(129,84)"/>
<path d="M0 0 C1.04796218 0.84643099 2.08792692 1.70276192 3.125 2.5625 C3.70507812 3.03816406 4.28515625 3.51382813 4.8828125 4.00390625 C7.82159088 6.77459952 10.37148276 9.93339656 13 13 C-0.86 26.86 -14.72 40.72 -29 55 C-33.01987409 52.99006295 -35.14516995 51.06153611 -38.25 47.875 C-39.14203125 46.96492188 -40.0340625 46.05484375 -40.953125 45.1171875 C-41.62859375 44.41851562 -42.3040625 43.71984375 -43 43 C-28.66666667 28.66666667 -14.33333333 14.33333333 0 0 Z " fill="#00BE78" transform="translate(481,76)"/>
<path d="M0 0 C5.47313966 4.56147547 10.53954809 9.40741321 15.55859375 14.4609375 C16.34774673 15.25150543 17.13689972 16.04207336 17.94996643 16.8565979 C20.44818661 19.36037626 22.94289044 21.86762475 25.4375 24.375 C27.13974208 26.08226248 28.84221373 27.78929609 30.54492188 29.49609375 C34.69927363 33.66141898 38.85075081 37.82959219 43 42 C41.10614981 45.90034574 38.83192748 48.72092608 36 52 C32.31697766 48.33735086 28.67852615 44.63311001 25.04734802 40.9190979 C21.86112843 37.66616275 18.66180427 34.42625222 15.46166992 31.18701172 C13.77263189 29.472652 12.08808331 27.75385805 10.40795898 26.03076172 C7.98019025 23.54262428 5.53687204 21.07074205 3.08984375 18.6015625 C2.33871811 17.82463043 1.58759247 17.04769836 0.81370544 16.2472229 C0.10939896 15.54253876 -0.59490753 14.83785461 -1.32055664 14.11181641 C-1.9361293 13.48514069 -2.55170197 12.85846497 -3.18592834 12.21279907 C-4.90516909 10.81345737 -4.90516909 10.81345737 -6.93965149 11.03648376 C-9.73689228 12.34460562 -11.46956605 14.1109255 -13.64501953 16.30444336 C-14.55921661 17.21886703 -15.4734137 18.13329071 -16.41531372 19.07542419 C-17.40463937 20.08007378 -18.39380173 21.08488419 -19.3828125 22.08984375 C-20.4029787 23.11560842 -21.4238117 24.14071033 -22.44528198 25.16517639 C-25.1308523 27.86219103 -27.80729596 30.56808877 -30.48193359 33.27593994 C-33.20518764 36.02984577 -35.93691378 38.77531843 -38.66796875 41.52148438 C-43.46540947 46.34763863 -48.25536111 51.1811009 -53.04006958 56.0198822 C-54.3566176 57.34999073 -55.67665435 58.67665435 -57 60 C-57 56.33800144 -55.87011991 55.51824793 -53.38270569 53.00944519 C-52.84971359 52.48723892 -52.3167215 51.96503265 -51.76757812 51.42700195 C-51.2116246 50.87061035 -50.65567108 50.31421875 -50.08287048 49.7409668 C-48.23935068 47.89954076 -46.38542415 46.06897368 -44.53125 44.23828125 C-43.2526441 42.96526919 -41.97469797 41.69159416 -40.6973877 40.4172821 C-37.3304878 37.06184756 -33.95467651 33.71551825 -30.57696533 30.37097168 C-27.13314919 26.95781987 -23.69778894 23.53618091 -20.26171875 20.11523438 C-13.51608694 13.40179655 -6.76101565 6.6979422 0 0 Z " fill="#F82DA6" transform="translate(450,380)"/>
<path d="M0 0 C1.13199353 0.9080162 2.25532363 1.82683826 3.375 2.75 C4.00148437 3.26046875 4.62796875 3.7709375 5.2734375 4.296875 C7.09276893 6.09150963 7.92026058 7.70813932 9 10 C8.51785034 10.41109512 8.03570068 10.82219025 7.53894043 11.2457428 C2.40538013 15.67317169 -2.44408154 20.31134159 -7.21875 25.12109375 C-7.96209595 25.86585464 -8.70544189 26.61061554 -9.47131348 27.37794495 C-11.81659301 29.72876745 -14.15834836 32.08306431 -16.5 34.4375 C-18.10132961 36.04385199 -19.70288998 37.64997397 -21.3046875 39.25585938 C-25.20579473 43.16791985 -29.1040242 47.08282952 -33 51 C-36.17483377 49.50427507 -38.02236535 48.10891525 -40.25 45.375 C-40.77078125 44.74335938 -41.2915625 44.11171875 -41.828125 43.4609375 C-42.21484375 42.97882813 -42.6015625 42.49671875 -43 42 C-42.2564325 41.58142227 -41.51286499 41.16284454 -40.74676514 40.73158264 C-38.15137845 39.09543018 -36.21066148 37.45836462 -34.05175781 35.29467773 C-33.31459534 34.56059189 -32.57743286 33.82650604 -31.81793213 33.07017517 C-31.03754578 32.2826033 -30.25715942 31.49503143 -29.453125 30.68359375 C-28.64131775 29.87132828 -27.8295105 29.05906281 -26.99310303 28.22218323 C-25.28290376 26.50896907 -23.57512939 24.79333129 -21.86962891 23.07543945 C-19.25086762 20.43837368 -16.62414437 17.80944568 -13.99609375 15.18164062 C-12.33546387 13.5160971 -10.67529158 11.85009718 -9.015625 10.18359375 C-7.83290009 8.9991996 -7.83290009 8.9991996 -6.62628174 7.7908783 C-5.90172791 7.05994461 -5.17717407 6.32901093 -4.43066406 5.57592773 C-3.79066467 4.93211655 -3.15066528 4.28830536 -2.49127197 3.62498474 C-0.91240828 2.05420677 -0.91240828 2.05420677 0 0 Z " fill="#3B85CE" transform="translate(110,430)"/>
<path d="M0 0 C3 0 3 0 4.55656433 1.47767639 C5.10274918 2.15028 5.64893402 2.82288361 6.21166992 3.51586914 C9.81543933 7.81351775 13.64301236 11.78804696 17.61328125 15.74609375 C18.30890671 16.44267593 19.00453217 17.13925812 19.72123718 17.85694885 C21.17629346 19.31267999 22.63259063 20.7671718 24.09008789 22.22045898 C26.32750895 24.45247268 28.55947677 26.68984135 30.79101562 28.92773438 C32.21061654 30.34667534 33.63052717 31.76530654 35.05078125 33.18359375 C35.71846024 33.85329697 36.38613922 34.52300018 37.0740509 35.21299744 C37.69197006 35.82776443 38.30988922 36.44253143 38.9465332 37.07592773 C39.48945511 37.61805405 40.03237701 38.16018036 40.5917511 38.71873474 C41.99184264 40.10889393 41.99184264 40.10889393 44 41 C42.02706978 45.58357527 38.77901226 47.92080482 35 51 C34.59144272 50.52038818 34.18288544 50.04077637 33.76194763 49.54663086 C29.2659699 44.33112486 24.54512849 39.41290836 19.66015625 34.5625 C18.89319931 33.79695801 18.12624237 33.03141602 17.33604431 32.24267578 C14.91389119 29.82606803 12.48826388 27.41298274 10.0625 25 C8.40797107 23.35049314 6.75367198 21.70075571 5.09960938 20.05078125 C1.06905798 16.03118629 -2.96434272 12.01446831 -7 8 C-6.02133662 6.85373678 -5.04205413 5.70800212 -4.0625 4.5625 C-3.51722656 3.92441406 -2.97195312 3.28632812 -2.41015625 2.62890625 C-1.63204305 1.73008851 -0.84063472 0.84063472 0 0 Z " fill="#FBA413" transform="translate(75,31)"/>
</svg>
