<?xml version="1.0" encoding="UTF-8"?>
<svg version="1.1" xmlns="http://www.w3.org/2000/svg" width="512" height="512">
<path d="M0 0 C0.67851517 -0.00540298 1.35703033 -0.01080597 2.05610657 -0.01637268 C4.29297864 -0.02885346 6.52856202 -0.01237696 8.76538086 0.00561523 C10.32189501 0.00546025 11.87840956 0.00397131 13.43492126 0.00120544 C16.69409279 -0.00017818 19.95282404 0.01237426 23.21191406 0.03515625 C27.39082774 0.06356484 31.56901125 0.06079691 35.74797916 0.04806614 C38.96075181 0.0411143 42.17335543 0.04889208 45.38610649 0.06132317 C46.92709137 0.06584086 48.46809436 0.06617169 50.00908089 0.06225777 C52.16138096 0.05934967 54.31267125 0.07583044 56.46484375 0.09765625 C57.68965958 0.10305923 58.9144754 0.10846222 60.17640686 0.11402893 C63.16772461 0.50170898 63.16772461 0.50170898 65.05149841 1.80821228 C66.59970031 4.15708639 66.74708007 6.34916169 66.67553711 9.11889648 C65.81901256 13.13797321 63.59397775 16.37085945 61.38256836 19.79077148 C59.84434352 23.22333753 60.13922463 24.92100535 61.16772461 28.50170898 C62.31951025 30.78729839 62.31951025 30.78729839 63.73022461 32.87670898 C66.37769225 37.41960998 66.88681372 40.28831297 66.16772461 45.50170898 C64.6243437 47.676473 63.53107188 48.32003535 61.16772461 49.50170898 C59.34977921 49.59263048 57.52846516 49.61924366 55.70825195 49.61523438 C54.56722015 49.61515884 53.42618835 49.61508331 52.25057983 49.61500549 C51.01409698 49.60984421 49.77761414 49.60468292 48.50366211 49.59936523 C47.24131744 49.59795029 45.97897278 49.59653534 44.67837524 49.59507751 C41.32134162 49.59041976 37.96437561 49.58143306 34.60736084 49.57037354 C31.18217565 49.56014668 27.75698328 49.5555224 24.33178711 49.55053711 C17.61039476 49.54034082 10.88912113 49.52076776 4.16772461 49.50170898 C4.16772461 62.04170898 4.16772461 74.58170898 4.16772461 87.50170898 C6.14772461 88.16170898 8.12772461 88.82170898 10.16772461 89.50170898 C12.17944336 90.98217773 12.17944336 90.98217773 13.85522461 92.68920898 C14.4159668 93.23963867 14.97670898 93.79006836 15.55444336 94.35717773 C19.56444911 99.68766965 20.61443786 104.77533152 20.57177734 111.32958984 C20.58207222 112.45301537 20.58207222 112.45301537 20.59257507 113.59913635 C20.61075627 116.05513908 20.60701821 118.51049768 20.60131836 120.96655273 C20.60588434 122.6861644 20.61119116 124.40577425 20.61720276 126.12538147 C20.62611681 129.72217237 20.62373026 133.31874103 20.61376953 136.91552734 C20.60228202 141.50981874 20.62249638 146.10334126 20.65168667 150.6975317 C20.67009054 154.24675821 20.6697479 157.79580188 20.66404915 161.34506416 C20.66389645 163.03823487 20.6698984 164.73141838 20.68234062 166.42454338 C20.7933985 184.01343857 20.7933985 184.01343857 14.49194336 191.48999023 C13.95182617 191.92698242 13.41170898 192.36397461 12.85522461 192.81420898 C12.3228418 193.2640918 11.79045898 193.71397461 11.24194336 194.17749023 C5.3450599 197.94216725 0.31290951 198.95874454 -6.54711914 199.12670898 C-7.36169083 199.15974121 -8.17626251 199.19277344 -9.01551819 199.22680664 C-11.59998119 199.33126002 -14.18454252 199.41863378 -16.76977539 199.50170898 C-20.17551096 199.61137603 -23.57992275 199.7388049 -26.98461914 199.87670898 C-28.13655006 199.90498779 -28.13655006 199.90498779 -29.31175232 199.93383789 C-35.31897861 200.17924338 -41.02748206 201.26545484 -45.85571289 205.11499023 C-46.30172852 205.67573242 -46.74774414 206.23647461 -47.20727539 206.81420898 C-47.66875977 207.3672168 -48.13024414 207.92022461 -48.60571289 208.48999023 C-52.3317154 214.601109 -52.16940822 220.87447639 -52.24633789 227.80639648 C-52.26570404 228.885513 -52.28507019 229.96462952 -52.30502319 231.07644653 C-52.36461481 234.50978793 -52.411123 237.94316323 -52.45727539 241.37670898 C-52.49547392 243.71005662 -52.53452674 246.04339044 -52.57446289 248.37670898 C-52.67029956 254.0849193 -52.75540651 259.79321342 -52.83227539 265.50170898 C-51.75296753 265.91114746 -51.75296753 265.91114746 -50.65185547 266.32885742 C-47.87889519 267.4823167 -45.33748169 268.79909586 -42.71899414 270.26733398 C-41.72939697 270.82114746 -40.7397998 271.37496094 -39.72021484 271.94555664 C-38.66406982 272.54158691 -37.6079248 273.13761719 -36.51977539 273.75170898 C-34.87851685 274.6747583 -34.87851685 274.6747583 -33.20410156 275.61645508 C-25.31904616 280.06495602 -17.46952934 284.57293388 -9.64477539 289.12670898 C-8.15046997 289.99537598 -8.15046997 289.99537598 -6.62597656 290.8815918 C6.77755623 298.72137223 6.77755623 298.72137223 8.16772461 301.50170898 C8.27967011 303.51231757 8.32703475 305.52663832 8.34472656 307.5402832 C8.3575618 308.8085495 8.37039703 310.0768158 8.38362122 311.3835144 C8.39178795 312.77447114 8.39923181 314.16543227 8.40600586 315.55639648 C8.41008139 316.25565372 8.41415691 316.95491096 8.41835594 317.67535782 C8.43921382 321.37577265 8.45351724 325.07615042 8.46289062 328.77661133 C8.47396042 332.59904199 8.50836671 336.42089135 8.54806232 340.24311638 C8.57420246 343.1822315 8.58258003 346.12120748 8.5861721 349.06042862 C8.59104414 350.46945247 8.60267587 351.87846985 8.6212101 353.28738022 C8.64554337 355.25955959 8.64222246 357.23202142 8.63769531 359.2043457 C8.64649467 360.88740311 8.64649467 360.88740311 8.6554718 362.60446167 C8.05362667 366.17945755 7.03977541 367.34827639 4.16772461 369.50170898 C0.66772461 370.06420898 0.66772461 370.06420898 -2.83227539 369.50170898 C-5.26977539 367.12670898 -5.26977539 367.12670898 -6.83227539 364.50170898 C-6.83227539 363.84170898 -6.83227539 363.18170898 -6.83227539 362.50170898 C-10.60445412 362.5244679 -14.37358642 362.60171561 -18.14477539 362.68920898 C-19.21663086 362.69500977 -20.28848633 362.70081055 -21.39282227 362.70678711 C-22.42084961 362.73579102 -23.44887695 362.76479492 -24.50805664 362.79467773 C-25.45592041 362.81038818 -26.40378418 362.82609863 -27.38037109 362.84228516 C-30.07715908 363.28915591 -30.07715908 363.28915591 -31.60253906 365.98339844 C-32.00835205 366.81444092 -32.41416504 367.6454834 -32.83227539 368.50170898 C-34.70150193 370.37093553 -37.32978708 369.79401127 -39.82446289 369.92749023 C-41.83227539 369.50170898 -41.83227539 369.50170898 -43.43945312 368.03271484 C-45.51428859 364.26236966 -45.20399283 360.81346593 -45.12524414 356.57983398 C-45.1209993 355.71984802 -45.11675446 354.85986206 -45.11238098 353.97381592 C-45.09561655 351.23279229 -45.05796884 348.49250959 -45.01977539 345.75170898 C-45.00472564 343.89104254 -44.99103774 342.03036454 -44.97875977 340.16967773 C-44.94572038 335.61340358 -44.89395372 331.05768182 -44.83227539 326.50170898 C-45.71802246 326.22786377 -46.60376953 325.95401855 -47.51635742 325.671875 C-50.55263368 324.60039274 -53.10312464 323.37788241 -55.88696289 321.77905273 C-56.83313477 321.23958008 -57.77930664 320.70010742 -58.75415039 320.14428711 C-59.72868164 319.58161133 -60.70321289 319.01893555 -61.70727539 318.43920898 C-63.62116858 317.34386102 -65.5352352 316.24881602 -67.44946289 315.15405273 C-68.38934052 314.61465561 -69.32921814 314.07525848 -70.2975769 313.51951599 C-74.26372785 311.24996595 -78.24722671 309.01150613 -82.23120117 306.7734375 C-82.96552872 306.36065804 -83.69985626 305.94787857 -84.45643616 305.52259064 C-86.24826045 304.51541279 -88.04025068 303.50853019 -89.83227539 302.50170898 C-89.83592102 303.60560471 -89.83956665 304.70950043 -89.84332275 305.84684753 C-89.88026318 316.24978072 -89.93802551 326.65241763 -90.01617813 337.05512524 C-90.05568814 342.40329911 -90.08785939 347.75130746 -90.10327148 353.09960938 C-90.11841476 358.26100009 -90.15281909 363.42193585 -90.20058441 368.58312416 C-90.21542222 370.55224974 -90.22331778 372.52144026 -90.22415924 374.49062157 C-90.22652342 377.24896124 -90.25355853 380.00603801 -90.28637695 382.76416016 C-90.28134659 383.57839951 -90.27631622 384.39263885 -90.27113342 385.23155212 C-90.34273913 389.12111809 -90.59116308 391.10232289 -92.64764404 394.50874329 C-94.83227539 396.50170898 -94.83227539 396.50170898 -98.33227539 397.12670898 C-101.83227539 396.50170898 -101.83227539 396.50170898 -104.26977539 394.12670898 C-105.83227539 391.50170898 -105.83227539 391.50170898 -105.83227539 389.50170898 C-114.41227539 389.50170898 -122.99227539 389.50170898 -131.83227539 389.50170898 C-132.16227539 391.15170898 -132.49227539 392.80170898 -132.83227539 394.50170898 C-136.32096191 396.82749999 -137.72946058 396.92036356 -141.83227539 396.50170898 C-143.99124527 395.39385509 -143.99124527 395.39385509 -145.83227539 393.50170898 C-146.34008408 390.57131672 -146.34008408 390.57131672 -146.35125732 386.91487122 C-146.3625092 385.90647242 -146.3625092 385.90647242 -146.37398839 384.87770194 C-146.39432255 382.62030489 -146.38615243 380.36390681 -146.37817383 378.10644531 C-146.3869058 376.49024966 -146.39739027 374.87406266 -146.40950012 373.25788879 C-146.43742706 368.86557612 -146.44076334 364.47354459 -146.43978024 360.08115602 C-146.44290361 355.4926534 -146.46850976 350.90427849 -146.49176025 346.31584167 C-146.53236802 337.62486493 -146.55267216 328.9339633 -146.56573415 320.24290627 C-146.58158805 310.34936613 -146.61999684 300.45595413 -146.66032743 290.5624882 C-146.74279171 270.20893735 -146.79684299 249.85539245 -146.83227539 229.50170898 C-147.55733182 230.26148513 -148.28238825 231.02126127 -149.02941608 231.80406094 C-150.00604086 232.80877476 -150.98310062 233.81306588 -151.96052551 234.81700134 C-152.67274159 235.56683045 -152.67274159 235.56683045 -153.39934587 236.33180761 C-158.17876227 241.2078336 -163.35354885 243.44666324 -169.83227539 245.50170898 C-171.26623154 245.98074173 -171.26623154 245.98074173 -172.72915649 246.4694519 C-175.69547278 247.43071034 -178.67478526 248.3302497 -181.66430664 249.21655273 C-183.93281011 249.90303319 -186.20119753 250.58989726 -188.46948242 251.27709961 C-190.22787445 251.80654175 -190.22787445 251.80654175 -192.02178955 252.34667969 C-212.32467457 258.46911507 -232.42918172 264.93230798 -252.31591797 272.29833984 C-253.06854416 272.57657089 -253.82117035 272.85480194 -254.59660339 273.14146423 C-255.97405167 273.65262137 -257.35002811 274.16777317 -258.72407532 274.68800354 C-264.36889883 276.79653754 -269.18577552 277.61639518 -275.19946289 277.67749023 C-276.41504883 277.70133789 -277.63063477 277.72518555 -278.88305664 277.74975586 C-281.42455447 277.79259009 -283.96627338 277.82391349 -286.50805664 277.84350586 C-293.45077089 278.00146179 -298.23831547 278.22909462 -303.83227539 282.50170898 C-309.40792104 288.37874088 -310.13790827 293.75576035 -310.24633789 301.52124023 C-310.26570404 302.37981125 -310.28507019 303.23838226 -310.30502319 304.12297058 C-310.36459095 306.85328373 -310.41111273 309.58363956 -310.45727539 312.31420898 C-310.49547618 314.17034671 -310.53452914 316.02646711 -310.57446289 317.88256836 C-310.67027366 322.42214042 -310.7543886 326.96179545 -310.83227539 331.50170898 C-310.08115479 331.79271484 -309.33003418 332.0837207 -308.55615234 332.38354492 C-306.35200028 333.28835952 -304.32759479 334.2388646 -302.25024414 335.39233398 C-301.57735352 335.76519531 -300.90446289 336.13805664 -300.21118164 336.5222168 C-299.48801758 336.92794922 -298.76485352 337.33368164 -298.01977539 337.75170898 C-297.25149414 338.18064453 -296.48321289 338.60958008 -295.69165039 339.05151367 C-284.98963973 345.05765788 -274.40156226 351.26568108 -263.83227539 357.50170898 C-262.88481445 358.05793945 -261.93735352 358.61416992 -260.96118164 359.18725586 C-260.06270508 359.71899414 -259.16422852 360.25073242 -258.23852539 360.79858398 C-257.43737305 361.27134766 -256.6362207 361.74411133 -255.81079102 362.23120117 C-253.55522676 363.67961632 -252.08820784 364.74124034 -251.21734619 367.32888794 C-250.80060759 369.68039938 -250.69089152 371.8785349 -250.67114258 374.2668457 C-250.66153503 375.20817352 -250.65192749 376.14950134 -250.64202881 377.11935425 C-250.63777893 378.12982819 -250.63352905 379.14030212 -250.62915039 380.18139648 C-250.62345032 381.22691681 -250.61775024 382.27243713 -250.61187744 383.34963989 C-250.60243743 385.56031281 -250.59589743 387.77099974 -250.59204102 389.98168945 C-250.58233179 393.35710249 -250.55129696 396.73190745 -250.51977539 400.10717773 C-250.51324532 402.25691371 -250.50799486 404.40665403 -250.50415039 406.55639648 C-250.48563019 408.0660347 -250.48563019 408.0660347 -250.46673584 409.60617065 C-250.48360148 414.93169394 -250.63965921 418.99497436 -253.83227539 423.50170898 C-257.20727539 424.62670898 -257.20727539 424.62670898 -260.83227539 424.50170898 C-263.76977539 422.81420898 -263.76977539 422.81420898 -265.83227539 420.50170898 C-265.83227539 419.18170898 -265.83227539 417.86170898 -265.83227539 416.50170898 C-273.42227539 416.50170898 -281.01227539 416.50170898 -288.83227539 416.50170898 C-289.16227539 418.15170898 -289.49227539 419.80170898 -289.83227539 421.50170898 C-291.45727539 423.37670898 -291.45727539 423.37670898 -293.83227539 424.50170898 C-299.91043968 424.39507452 -299.91043968 424.39507452 -302.56347656 421.82397461 C-304.24514872 418.74603241 -303.93771763 416.87740949 -303.57055664 413.40795898 C-302.25228736 400.64349825 -302.25228736 400.64349825 -306.68725586 389.20874023 C-311.64943544 385.42216497 -317.25783426 383.34869578 -323.05297852 381.16577148 C-331.72658808 377.58676627 -339.7664904 372.25841756 -347.83227539 367.50170898 C-347.82228264 368.89446297 -347.82228264 368.89446297 -347.81208801 370.31535339 C-347.75195203 379.06987412 -347.70628828 387.82432537 -347.67683887 396.57900524 C-347.6611896 401.0797781 -347.63996485 405.58038014 -347.60595703 410.08105469 C-347.57333718 414.4252776 -347.55541682 418.76933631 -347.54764366 423.11367226 C-347.54210486 424.77026262 -347.53128888 426.42684411 -347.51508522 428.08336449 C-347.49327569 430.40554531 -347.49030988 432.72704948 -347.49169922 435.04931641 C-347.48091339 435.73264542 -347.47012756 436.41597443 -347.45901489 437.12001038 C-347.48927782 441.80134225 -348.47138217 445.14081576 -351.83227539 448.50170898 C-358.04416916 449.0877367 -358.04416916 449.0877367 -361.26977539 446.68920898 C-362.83227539 444.50170898 -362.83227539 444.50170898 -362.83227539 441.50170898 C-371.08227539 441.50170898 -379.33227539 441.50170898 -387.83227539 441.50170898 C-388.16227539 442.82170898 -388.49227539 444.14170898 -388.83227539 445.50170898 C-389.95727539 447.25170898 -389.95727539 447.25170898 -391.83227539 448.50170898 C-395.26977539 449.00170898 -395.26977539 449.00170898 -398.83227539 448.50170898 C-401.5029244 445.89721732 -402.70983798 444.20781198 -403.35125732 440.50871277 C-403.36013977 439.40062759 -403.36902222 438.29254242 -403.37817383 437.15087891 C-403.39789246 435.88994919 -403.41761108 434.62901947 -403.43792725 433.32987976 C-403.43959014 431.96397953 -403.44082115 430.59807872 -403.44165039 429.23217773 C-403.45663936 427.82682902 -403.47336802 426.42149787 -403.49176025 425.01618958 C-403.53536663 421.32877778 -403.55541759 417.64160358 -403.57049561 413.95397949 C-403.59009123 410.18654368 -403.63205835 406.41936355 -403.67211914 402.65209961 C-403.74734825 395.26870492 -403.79768344 387.88541778 -403.83227539 380.50170898 C-404.84112793 380.11644043 -404.84112793 380.11644043 -405.87036133 379.72338867 C-406.76013672 379.37695312 -407.64991211 379.03051758 -408.56665039 378.67358398 C-409.44546875 378.33423828 -410.32428711 377.99489258 -411.22973633 377.64526367 C-418.81261045 374.31335163 -425.40123823 368.37259022 -428.60419655 360.63754272 C-430.67223657 354.90272399 -431.26375346 349.87863748 -431.22045898 343.81030273 C-431.22571594 342.88710236 -431.2309729 341.96390198 -431.23638916 341.01272583 C-431.2494969 337.98804354 -431.24088386 334.9638958 -431.23071289 331.93920898 C-431.23273627 329.82128804 -431.23564991 327.70336779 -431.2394104 325.58544922 C-431.24382127 321.1574029 -431.23744254 316.72953874 -431.22338867 312.30151367 C-431.20629769 306.64256792 -431.2161455 300.98404913 -431.23410606 295.32511902 C-431.24497731 290.95492368 -431.24148223 286.58482858 -431.23372269 282.21463013 C-431.23172992 280.12875314 -431.23414731 278.04286688 -431.24116135 275.95700073 C-431.2488309 273.03546242 -431.23709474 270.11460333 -431.22045898 267.19311523 C-431.22653168 266.34194122 -431.23260437 265.49076721 -431.23886108 264.61380005 C-431.13616927 254.81590079 -428.26945869 247.86557577 -421.47680664 240.79858398 C-409.8757915 230.72266537 -394.59508634 229.14357033 -379.83227539 228.50170898 C-380.29118164 227.89584961 -380.75008789 227.28999023 -381.22290039 226.66577148 C-390.60730349 213.85093532 -393.91522959 200.74451278 -392.36352539 184.85717773 C-390.92410399 175.76553816 -387.48998314 167.97701378 -380.83227539 161.50170898 C-377.96183887 159.48797221 -375.0278279 157.93336484 -371.83227539 156.50170898 C-370.94540039 156.08920898 -370.05852539 155.67670898 -369.14477539 155.25170898 C-358.18282631 151.69648226 -346.06194277 152.74756734 -335.64868164 157.49780273 C-327.21749639 162.24753477 -321.12295749 169.56280986 -318.45727539 178.86889648 C-315.67642573 195.03258511 -317.74288895 210.62543564 -326.83227539 224.50170898 C-327.82771054 225.83845378 -328.82717527 227.17221603 -329.83227539 228.50170898 C-292.02764347 231.36815793 -262.03316074 225.77948124 -226.86889648 211.86547852 C-221.57079606 209.77152158 -216.23605114 207.82621948 -210.85180664 205.96655273 C-209.42584705 205.46984207 -207.99997946 204.97286719 -206.57421875 204.47558594 C-205.92081512 204.24779449 -205.2674115 204.02000305 -204.59420776 203.78530884 C-194.3011293 200.19269468 -187.56053848 197.28532221 -180.70727539 188.56420898 C-158.77160753 161.19086292 -158.77160753 161.19086292 -145.83227539 154.50170898 C-145.2096582 154.17170898 -144.58704102 153.84170898 -143.94555664 153.50170898 C-137.38293667 150.54070041 -129.91611646 150.76919777 -122.83227539 150.50170898 C-122.83227539 147.57387542 -124.34688893 146.26885593 -126.08227539 143.93920898 C-135.17008041 131.16120435 -137.17079166 117.91005096 -135.83227539 102.50170898 C-134.04352635 92.251213 -129.69714911 84.08860531 -121.45727539 77.62670898 C-112.27323429 71.64160355 -100.47953512 70.23547432 -89.83618164 71.99780273 C-79.83191841 74.25354107 -71.70378801 77.82910777 -65.83227539 86.50170898 C-61.22602102 94.20920391 -59.45688873 101.76289714 -59.51977539 110.68920898 C-59.52541504 111.52709961 -59.53105469 112.36499023 -59.53686523 113.22827148 C-59.81905437 127.73446928 -64.57863427 138.39733964 -73.83227539 149.50170898 C-51.06227539 149.99670898 -51.06227539 149.99670898 -27.83227539 150.50170898 C-27.99016936 135.39399561 -27.99016936 135.39399561 -28.19262695 120.28686523 C-28.20431998 118.3793223 -28.21451035 116.47176931 -28.22290039 114.56420898 C-28.24336426 113.59032227 -28.26382812 112.61643555 -28.28491211 111.61303711 C-28.28867534 104.19195603 -26.75269412 98.88660782 -21.86743164 93.22436523 C-21.21645508 92.67651367 -20.56547852 92.12866211 -19.89477539 91.56420898 C-19.24637695 90.99831055 -18.59797852 90.43241211 -17.92993164 89.84936523 C-15.55116772 88.32110908 -13.59334006 87.98631098 -10.83227539 87.50170898 C-10.84115784 86.47076111 -10.85004028 85.43981323 -10.85919189 84.37762451 C-10.94024629 74.666277 -11.00022565 64.95499804 -11.03952408 55.24338913 C-11.06040702 50.25041364 -11.08873761 45.25771102 -11.1340332 40.26489258 C-11.17746567 35.44734258 -11.20140718 30.63005518 -11.21178436 25.81232452 C-11.21918041 23.97347122 -11.23362308 22.13463244 -11.25519562 20.29589081 C-11.28419541 17.72192729 -11.28823289 15.14905153 -11.28637695 12.57495117 C-11.30075806 11.81322098 -11.31513916 11.05149078 -11.32995605 10.26667786 C-11.30402213 6.94692128 -11.05168621 4.8405772 -9.23091125 2.02848816 C-6.00898702 -0.02233035 -3.81121474 0.00051672 0 0 Z " fill="#000101" transform="translate(445.832275390625,-0.501708984375)"/>
<path d="M0 0 C1.11183151 -0.00983414 2.22366302 -0.01966827 3.3691864 -0.02980042 C4.58438965 -0.02013245 5.7995929 -0.01046448 7.05162048 -0.00050354 C8.9764753 -0.00860802 8.9764753 -0.00860802 10.94021606 -0.01687622 C14.45676947 -0.03083508 17.97283386 -0.01965917 21.48936009 -0.00316501 C25.16884447 0.01068568 28.84830047 0.00422551 32.52780151 0.0007019 C38.70574323 -0.00199988 44.88349062 0.01147363 51.06138611 0.03465271 C58.20627954 0.06127415 65.35084829 0.06300578 72.49577433 0.05126435 C79.36757062 0.04049039 86.23924935 0.04666982 93.1110363 0.06081963 C96.03643507 0.06658161 98.96174786 0.06649515 101.8871479 0.06175423 C105.96949617 0.05610181 110.05135821 0.07528915 114.13365173 0.09715271 C115.95949295 0.09040024 115.95949295 0.09040024 117.82221985 0.08351135 C118.93123154 0.09341599 120.04024323 0.10332062 121.18286133 0.11352539 C122.14831407 0.11595529 123.1137668 0.11838518 124.10847569 0.12088871 C126.52793884 0.50120544 126.52793884 0.50120544 128.33819675 1.74077511 C129.85926801 3.99146457 129.90511673 5.34747377 129.90888977 8.05577087 C129.92157898 9.45641029 129.92157898 9.45641029 129.93452454 10.88534546 C129.92845184 11.90777847 129.92237915 12.93021149 129.91612244 13.98362732 C129.92137939 15.06189285 129.92663635 16.14015839 129.93205261 17.25109863 C129.94528331 20.82419718 129.93650338 24.39685217 129.92637634 27.96995544 C129.92839619 30.44712917 129.93130687 32.92430232 129.93507385 35.401474 C129.94006898 41.26274612 129.92955199 47.1238566 129.91362154 52.98510504 C129.90235734 57.66192402 129.90634089 62.33855365 129.91905212 67.0153656 C129.93641197 73.4573619 129.93918236 79.89917484 129.92938614 86.34118652 C129.9273809 88.80044599 129.92985469 91.25971322 129.9368248 93.71896362 C129.94441984 97.15244883 129.93286178 100.58534256 129.91612244 104.01878357 C129.92219513 105.04121658 129.92826782 106.0636496 129.93452454 107.11706543 C129.92606506 108.05082504 129.91760559 108.98458466 129.90888977 109.94664001 C129.90775869 110.75853035 129.90662762 111.57042068 129.90546227 112.40691376 C129.43601911 115.01112544 128.59385308 115.89708676 126.52793884 117.50120544 C122.98661194 118.22946219 119.61772409 118.18232122 116.52793884 116.25120544 C115.52793884 114.50120544 115.52793884 114.50120544 115.52793884 110.50120544 C79.22793884 110.50120544 42.92793884 110.50120544 5.52793884 110.50120544 C5.19793884 112.15120544 4.86793884 113.80120544 4.52793884 115.50120544 C0.80735524 117.98159451 -1.07002686 117.96457748 -5.47206116 117.50120544 C-7.90956116 115.68870544 -7.90956116 115.68870544 -9.47206116 113.50120544 C-9.47206116 112.51120544 -9.47206116 111.52120544 -9.47206116 110.50120544 C-45.77206116 110.50120544 -82.07206116 110.50120544 -119.47206116 110.50120544 C-119.80206116 112.15120544 -120.13206116 113.80120544 -120.47206116 115.50120544 C-122.47206116 117.50120544 -122.47206116 117.50120544 -126.40956116 117.81370544 C-129.04951213 117.74183745 -130.20259223 117.66962353 -132.47206116 116.25120544 C-133.47206116 114.50120544 -133.47206116 114.50120544 -133.47206116 110.50120544 C-169.77206116 110.50120544 -206.07206116 110.50120544 -243.47206116 110.50120544 C-243.80206116 112.15120544 -244.13206116 113.80120544 -244.47206116 115.50120544 C-248.19264476 117.98159451 -250.07002686 117.96457748 -254.47206116 117.50120544 C-256.90956116 115.68870544 -256.90956116 115.68870544 -258.47206116 113.50120544 C-258.47206116 112.51120544 -258.47206116 111.52120544 -258.47206116 110.50120544 C-294.77206116 110.50120544 -331.07206116 110.50120544 -368.47206116 110.50120544 C-368.80206116 112.15120544 -369.13206116 113.80120544 -369.47206116 115.50120544 C-372.0654202 118.09456449 -373.95953148 117.77847108 -377.49940491 117.86448669 C-380.19384624 117.36828265 -380.8666185 116.73920538 -382.47206116 114.50120544 C-382.77024694 111.87867087 -382.89265039 109.49826579 -382.87049866 106.87620544 C-382.87336884 106.13289978 -382.87623901 105.38959412 -382.87919617 104.62376404 C-382.88123592 103.05360654 -382.87571216 101.48342358 -382.86317444 99.91331482 C-382.84711818 97.50974212 -382.86302468 95.10785084 -382.88221741 92.70433044 C-382.88023496 91.17828507 -382.87639124 89.65224073 -382.87049866 88.12620544 C-382.8796077 87.04798523 -382.8796077 87.04798523 -382.88890076 85.94798279 C-382.81892236 80.9840623 -382.81892236 80.9840623 -381.25744915 78.81037426 C-378.89138736 77.07541562 -377.43877471 77.13136074 -374.51766968 77.14044189 C-372.98431473 77.13425591 -372.98431473 77.13425591 -371.41998291 77.12794495 C-369.73900261 77.14412369 -369.73900261 77.14412369 -368.02406311 77.16062927 C-366.84344299 77.16019119 -365.66282288 77.15975311 -364.44642639 77.15930176 C-361.20894883 77.16103481 -357.97185929 77.17608952 -354.73445916 77.19702363 C-351.35120848 77.21576593 -347.96795034 77.21753893 -344.58465576 77.22109985 C-338.17793352 77.23042755 -331.77136469 77.25505102 -325.36471003 77.28514832 C-318.07096777 77.31866988 -310.77721821 77.33517267 -303.48341811 77.35023463 C-288.47954695 77.38160003 -273.47581939 77.43437449 -258.47206116 77.50120544 C-258.48777161 76.8557074 -258.50348206 76.21020935 -258.51966858 75.54515076 C-258.58211918 72.61392515 -258.62108346 69.68283965 -258.65956116 66.75120544 C-258.68469788 65.73542419 -258.70983459 64.71964294 -258.73573303 63.67308044 C-258.745401 62.69339294 -258.75506897 61.71370544 -258.76502991 60.70433044 C-258.78074036 59.80359802 -258.79645081 58.9028656 -258.81263733 57.97483826 C-258.40129037 54.98719138 -257.54818526 53.66205071 -255.47206116 51.50120544 C-252.53220636 50.52125384 -250.65521936 50.37772477 -247.59359741 50.38095093 C-246.58818909 50.37957626 -245.58278076 50.3782016 -244.54690552 50.37678528 C-243.44495346 50.38038055 -242.3430014 50.38397583 -241.20765686 50.38768005 C-239.4659874 50.38746101 -239.4659874 50.38746101 -237.68913269 50.38723755 C-233.84201708 50.38793556 -229.99494958 50.39572278 -226.14784241 50.40354919 C-223.48411985 50.40541377 -220.82039998 50.40688667 -218.15667725 50.40783691 C-211.85626825 50.41094602 -205.55587658 50.41915375 -199.25547522 50.4291864 C-192.08263039 50.44036059 -184.90978472 50.44586129 -177.73693335 50.45088184 C-162.98196708 50.4613367 -148.22701442 50.47892801 -133.47206116 50.50120544 C-133.49562683 49.66142151 -133.49562683 49.66142151 -133.51966858 48.80467224 C-133.58205964 46.26611954 -133.62106334 43.72772816 -133.65956116 41.18870544 C-133.68469788 40.30763123 -133.70983459 39.42655701 -133.73573303 38.51878357 C-133.75023499 37.24744568 -133.75023499 37.24744568 -133.76502991 35.95042419 C-133.78859558 34.77999573 -133.78859558 34.77999573 -133.81263733 33.58592224 C-133.38429568 30.96398009 -132.51884948 30.13745425 -130.47206116 28.50120544 C-128.02387908 27.27711441 -126.45107556 27.37806964 -123.71385193 27.38095093 C-122.70981827 27.37957626 -121.70578461 27.3782016 -120.67132568 27.37678528 C-119.01300468 27.38217819 -119.01300468 27.38217819 -117.32118225 27.38768005 C-116.1602153 27.38753403 -114.99924835 27.387388 -113.80310059 27.38723755 C-109.95054786 27.38793642 -106.09804298 27.39572763 -102.24549866 27.40354919 C-99.58034686 27.40541347 -96.91519775 27.4068865 -94.25004578 27.40783691 C-87.94252031 27.41094799 -81.63501212 27.41915838 -75.32749426 27.4291864 C-68.14741761 27.44035446 -60.96734013 27.44585974 -53.78725696 27.45088184 C-39.01551617 27.46134117 -24.24378897 27.47893631 -9.47206116 27.50120544 C-9.49300842 26.82541443 -9.51395569 26.14962341 -9.53553772 25.45335388 C-9.61877758 22.38612291 -9.67074582 19.31912963 -9.72206116 16.25120544 C-9.75557678 15.18772888 -9.78909241 14.12425232 -9.82362366 13.02854919 C-9.83651428 12.00374451 -9.84940491 10.97893982 -9.86268616 9.92308044 C-9.88363342 8.98045349 -9.90458069 8.03782654 -9.92616272 7.06663513 C-8.92059301 1.38570688 -5.33001816 0.00115495 0 0 Z " fill="#030303" transform="translate(382.47206115722656,394.49879455566406)"/>
<path d="M0 0 C3.5386994 1.65139305 4.81070153 2.71605229 7 6 C7.27415466 9.01582336 7.27415466 9.01582336 7.30639648 12.76293945 C7.31472 13.44624329 7.32304352 14.12954712 7.33161926 14.83355713 C7.35572261 17.0935231 7.36449232 19.35320035 7.37109375 21.61328125 C7.38006105 23.18645819 7.38918292 24.75963426 7.39845276 26.33280945 C7.41494704 29.63229443 7.42264344 32.9316779 7.42553711 36.23120117 C7.43091627 40.45150969 7.46857382 44.6708589 7.51428127 48.8908968 C7.54408305 52.14150947 7.55126136 55.39189223 7.55226326 58.64262962 C7.55646074 60.19793267 7.56887627 61.7532367 7.58978081 63.30840492 C7.61675802 65.48927048 7.61185341 67.66792757 7.59936523 69.84887695 C7.60443588 71.08781204 7.60950653 72.32674713 7.61473083 73.60322571 C6.79179636 78.150456 5.27026007 79.7722957 2 83 C-1.80240541 84.26746847 -5.43619353 84.22622901 -9.40234375 84.32421875 C-11.11528427 84.38333708 -12.8281743 84.44393355 -14.54101562 84.50585938 C-17.22631449 84.60022155 -19.91064458 84.68689105 -22.59692383 84.74780273 C-33.81519112 85.01527603 -42.39832497 85.68225833 -52 92 C-52.60497314 92.36593262 -53.20994629 92.73186523 -53.83325195 93.10888672 C-59.62038971 97.15759212 -63.59995335 105.1762301 -65 112 C-65.1108507 113.58712459 -65.17538956 115.1778453 -65.20532227 116.76855469 C-65.22526749 117.70922791 -65.24521271 118.64990112 -65.26576233 119.61907959 C-65.28247482 120.62650208 -65.29918732 121.63392456 -65.31640625 122.671875 C-65.3475779 124.22820648 -65.3475779 124.22820648 -65.37937927 125.815979 C-65.44471408 129.12725258 -65.50368517 132.43860482 -65.5625 135.75 C-65.60570049 137.99610185 -65.64931527 140.24219578 -65.69335938 142.48828125 C-65.8011579 147.99210807 -65.90035123 153.49599543 -66 159 C-76.56 159 -87.12 159 -98 159 C-98 166.26 -98 173.52 -98 181 C-99.98 181.99 -99.98 181.99 -102 183 C-103.15085462 185.30170924 -103.13661846 186.62761772 -103.15821838 189.18875122 C-103.1680072 190.06657257 -103.17779602 190.94439392 -103.18788147 191.84881592 C-103.19363693 192.81410217 -103.1993924 193.77938843 -103.20532227 194.77392578 C-103.21522186 195.78858917 -103.22512146 196.80325256 -103.23532104 197.84866333 C-103.26699669 201.21418903 -103.29171745 204.57972887 -103.31640625 207.9453125 C-103.33697054 210.27416356 -103.35796687 212.60301084 -103.37937927 214.93185425 C-103.43465416 221.07046455 -103.48403953 227.20910883 -103.53222656 233.34777832 C-103.58240208 239.60818517 -103.63810873 245.86854249 -103.69335938 252.12890625 C-103.80100721 264.41923015 -103.90192652 276.70959597 -104 289 C-112.91 289 -121.82 289 -131 289 C-131.00364563 286.70149582 -131.00729126 284.40299164 -131.01104736 282.03483582 C-131.0472283 260.41766472 -131.1053725 238.8006331 -131.18390274 217.18357372 C-131.22374856 206.06891315 -131.25611284 194.95432395 -131.27099609 183.83959961 C-131.28398393 174.15442785 -131.31087494 164.46941277 -131.35461307 154.78432924 C-131.37729258 149.65391977 -131.39290681 144.52370402 -131.39188385 139.39323997 C-131.39114106 134.56770945 -131.40893774 129.74260817 -131.44116783 124.91718864 C-131.44971081 123.14304307 -131.45138716 121.36884959 -131.44580269 119.59469223 C-131.43920697 117.17799217 -131.45697464 114.76267572 -131.48101807 112.34611511 C-131.46937744 111.28532117 -131.46937744 111.28532117 -131.45750165 110.20309705 C-131.51413292 107.00279122 -131.60096606 105.41053906 -133.87765121 103.06821156 C-136.56394641 101.71615689 -138.02864352 101.48484222 -141 102 C-143.31379793 103.66929393 -143.31379793 103.66929393 -145.375 106 C-146.15359375 106.82371094 -146.9321875 107.64742188 -147.734375 108.49609375 C-153.3548748 114.68698213 -153.3548748 114.68698213 -158.671875 121.13671875 C-159.23390625 121.83410156 -159.7959375 122.53148437 -160.375 123.25 C-160.85710937 123.87390625 -161.33921875 124.4978125 -161.8359375 125.140625 C-167.67195977 130.15496904 -176.05154874 132.18955187 -183.25 134.5625 C-184.16225342 134.86551025 -185.07450684 135.16852051 -186.0144043 135.48071289 C-192.937481 137.74109713 -199.84607534 139.60637831 -207 141 C-207.09796875 140.21496094 -207.1959375 139.42992187 -207.296875 138.62109375 C-207.44640625 137.57050781 -207.5959375 136.51992187 -207.75 135.4375 C-207.95882812 133.88869141 -207.95882812 133.88869141 -208.171875 132.30859375 C-209.17731877 128.29156133 -210.82241552 125.50980588 -213 122 C-211.08657789 121.25481765 -209.17308567 120.50981489 -207.25927734 119.765625 C-205.61684486 119.12582691 -203.97525189 118.48386981 -202.33447266 117.83984375 C-198.63785453 116.39274329 -194.94547104 114.95985339 -191.19140625 113.66796875 C-176.14058209 108.36738404 -167.68511719 96.05197949 -157.77734375 84.125 C-142.73443408 66.10269051 -142.73443408 66.10269051 -130.53008652 64.72021484 C-127.71272005 64.61433482 -124.90867364 64.59773243 -122.08935547 64.61523438 C-121.02493225 64.6098616 -119.96050903 64.60448883 -118.86383057 64.59895325 C-116.56457199 64.58920755 -114.26527676 64.58622134 -111.9659996 64.58930969 C-108.3257983 64.59380107 -104.68607964 64.57975078 -101.04592896 64.56091309 C-92.00981024 64.51796619 -82.97370288 64.50687604 -73.9375 64.49468994 C-66.29082087 64.4831624 -58.6443628 64.45960979 -50.99777603 64.41999817 C-47.41369598 64.40642612 -43.82991477 64.41059843 -40.24581909 64.41540527 C-38.04782733 64.40606542 -35.84983889 64.39589679 -33.65185547 64.38476562 C-32.16019363 64.39398796 -32.16019363 64.39398796 -30.63839722 64.40339661 C-25.35176002 64.35637592 -21.54182679 64.02485783 -17 61 C-13.11228605 55.76837228 -13.59140678 50.11357519 -13.62890625 43.87109375 C-13.61153119 41.68033692 -13.59394673 39.48958175 -13.57617188 37.29882812 C-13.56608323 33.86007726 -13.56250795 30.42143111 -13.56420898 26.98266602 C-13.56064227 23.65349246 -13.53331967 20.32512415 -13.50390625 16.99609375 C-13.51208878 15.96890732 -13.5202713 14.94172089 -13.52870178 13.88340759 C-13.45417146 6.74438987 -13.45417146 6.74438987 -11.09350586 2.87524414 C-7.43150091 -0.40497277 -4.86936229 -0.33012626 0 0 Z " fill="#75E0F6" transform="translate(445,100)"/>
<path d="M0 0 C3.4375 2 3.4375 2 6 5 C6.74618465 7.82524877 6.81866657 10.19314319 6 13 C2.75093525 18.17950013 -1.0568358 19.69235258 -6.55859375 21.734375 C-7.83162354 22.21982033 -7.83162354 22.21982033 -9.13037109 22.71507263 C-11.89099269 23.75148202 -14.66180647 24.75470704 -17.4375 25.75 C-18.37884796 26.09237701 -19.32019592 26.43475403 -20.29006958 26.7875061 C-34.92779834 32.04435553 -47.4580772 34.58773288 -63.05859375 33.91796875 C-72.29518822 33.64982888 -80.09499926 37.21260652 -87.0625 43.09765625 C-97.64948119 53.49253496 -97.47768957 68.3662851 -97.6875 82.25 C-97.72076069 83.78518372 -97.75525803 85.32034116 -97.79101562 86.85546875 C-97.87717465 90.5703254 -97.93807249 94.28434953 -98 98 C-107.57 98 -117.14 98 -127 98 C-127 104.27 -127 110.54 -127 117 C-129.97 117.99 -129.97 117.99 -133 119 C-134.2914819 122.87444569 -134.1773349 126.56241833 -134.20532227 130.60229492 C-134.21522186 131.48055435 -134.22512146 132.35881378 -134.23532104 133.26368713 C-134.26693119 136.1692535 -134.29169161 139.07483622 -134.31640625 141.98046875 C-134.33697619 143.99400764 -134.35797268 146.00754222 -134.37937927 148.02107239 C-134.43459577 153.32287097 -134.48400695 158.62470849 -134.53222656 163.92657471 C-134.58244463 169.33585072 -134.63812911 174.74507013 -134.69335938 180.15429688 C-134.8009358 190.7694829 -134.90238196 201.38471806 -135 212 C-139.14581887 212.02886751 -143.29161216 212.04675327 -147.4375 212.0625 C-148.62150391 212.07087891 -149.80550781 212.07925781 -151.02539062 212.08789062 C-152.15009766 212.09111328 -153.27480469 212.09433594 -154.43359375 212.09765625 C-155.99678345 212.10551147 -155.99678345 212.10551147 -157.59155273 212.11352539 C-160 212 -160 212 -161 211 C-161.10267864 208.81504276 -161.13355854 206.62671026 -161.13803101 204.43934631 C-161.14085229 203.74569912 -161.14367357 203.05205192 -161.14658034 202.33738512 C-161.15496276 199.99582704 -161.15626767 197.65431603 -161.15771484 195.31274414 C-161.16238032 193.64098476 -161.16752344 191.96922665 -161.17311096 190.29747009 C-161.18441187 186.68901246 -161.19283633 183.08056319 -161.19923019 179.47209358 C-161.20988207 173.77119465 -161.23011848 168.07035566 -161.25234985 162.36949158 C-161.31437153 146.15561664 -161.36833001 129.94174498 -161.40136719 113.7277832 C-161.41968044 104.77950064 -161.44857395 95.83131811 -161.4893719 86.88310903 C-161.51049631 82.14344767 -161.52590682 77.40391267 -161.52817917 72.66420174 C-161.53031802 68.20807587 -161.54610858 63.75221319 -161.57256889 59.29616737 C-161.57979246 57.65705057 -161.58184817 56.01790197 -161.57846642 54.37877274 C-161.57459803 52.14807846 -161.58893895 49.91823577 -161.60800171 47.68763733 C-161.61131186 46.43714128 -161.614622 45.18664522 -161.61803246 43.89825535 C-161.74408175 42.94183108 -161.87013103 41.98540682 -162 41 C-164.90585687 38.61201318 -164.90585687 38.61201318 -168.625 39.3125 C-171.82504312 39.64113123 -171.82504312 39.64113123 -173 41 C-173.12531154 43.9517038 -173.1861113 46.88113522 -173.20532227 49.83422852 C-173.22017166 51.22433136 -173.22017166 51.22433136 -173.23532104 52.64251709 C-173.26703701 55.72128704 -173.2917332 58.80007245 -173.31640625 61.87890625 C-173.33696707 64.00740471 -173.3579633 66.13589901 -173.37937927 68.26438904 C-173.43469004 73.87857704 -173.48405947 79.49280243 -173.53222656 85.10705566 C-173.58237601 90.8311701 -173.63809622 96.55522993 -173.69335938 102.27929688 C-173.80105102 113.51948466 -173.90247138 124.75971976 -174 136 C-178.32159877 134.66171504 -180.82598668 133.69497469 -183.75 130.1875 C-184.60851562 129.18783203 -184.60851562 129.18783203 -185.484375 128.16796875 C-189.11577114 122.97357479 -189.30142863 118.33738991 -189.30639648 112.20581055 C-189.31472 111.33035583 -189.32304352 110.45490112 -189.33161926 109.55291748 C-189.35567753 106.66413907 -189.36448645 103.77558667 -189.37109375 100.88671875 C-189.3800635 98.8727868 -189.38918541 96.85885553 -189.39845276 94.84492493 C-189.41493414 90.62422061 -189.42264129 86.40359553 -189.42553711 82.18286133 C-189.4309189 76.78584409 -189.4685945 71.38957601 -189.51428127 65.9927702 C-189.54408691 61.83278207 -189.55126144 57.67297356 -189.55226326 53.51288795 C-189.55645884 51.52383812 -189.56886647 49.53478743 -189.58978081 47.54584312 C-189.61676684 44.75746626 -189.61184837 41.97081568 -189.59936523 39.18237305 C-189.62161667 37.96092339 -189.62161667 37.96092339 -189.64431763 36.71479797 C-189.56804808 30.70409672 -187.78690468 26.66719708 -184 22 C-177.2808195 16.34978004 -167.83863593 13.81903573 -159.13673401 13.92926025 C-158.18349243 13.93825851 -157.23025085 13.94725677 -156.24812317 13.95652771 C-154.69553047 13.97852989 -154.69553047 13.97852989 -153.11157227 14.00097656 C-150.82931543 14.02375464 -148.54705288 14.04596439 -146.26478577 14.06768799 C-145.05359636 14.08047035 -143.84240696 14.09325272 -142.59451485 14.10642242 C-135.41996238 14.17137243 -128.24512496 14.18053877 -121.07032311 14.19573832 C-113.52425842 14.21236532 -105.9797387 14.24905446 -98.43432617 14.35302734 C-67.12157026 14.77120688 -39.1356763 14.47136252 -10.30601501 1.17352295 C-6.60813293 -0.13909949 -3.896601 -0.35553028 0 0 Z " fill="#71C8AE" transform="translate(218,229)"/>
<path d="M0 0 C36.3 0 72.6 0 110 0 C110 31.68 110 63.36 110 96 C73.7 96 37.4 96 0 96 C0 64.32 0 32.64 0 0 Z " fill="#ACCEFF" transform="translate(388,409)"/>
<path d="M0 0 C36.63 0 73.26 0 111 0 C111.020625 11.199375 111.04125 22.39875 111.0625 33.9375 C111.071604 37.47847412 111.08070801 41.01944824 111.09008789 44.66772461 C111.09460449 48.97961426 111.09460449 48.97961426 111.09544373 50.99586487 C111.09698297 52.40915745 111.10050751 53.8224487 111.10557556 55.23573303 C111.11285548 57.37194107 111.11390734 59.5080686 111.11352539 61.64428711 C111.115746 62.85007919 111.11796661 64.05587128 111.12025452 65.29820251 C111 68 111 68 110 69 C108.57053529 69.09554399 107.13637335 69.12188438 105.70372009 69.12025452 C104.77678848 69.12162918 103.84985687 69.12300385 102.89483643 69.12442017 C101.86985046 69.12082489 100.8448645 69.11722961 99.78881836 69.11352539 C98.17926018 69.11374443 98.17926018 69.11374443 96.53718567 69.1139679 C92.97138484 69.11326824 89.40563551 69.10547338 85.83984375 69.09765625 C83.37504607 69.09579226 80.91024801 69.09436827 78.44544983 69.09336853 C71.94346095 69.08954187 65.44149425 69.07971032 58.93951416 69.06866455 C51.14605067 69.05602947 43.35257577 69.0520489 35.55910492 69.04621124 C23.7060545 69.03649865 11.85305278 69.01734311 0 69 C0 46.23 0 23.46 0 0 Z " fill="#EBC6B7" transform="translate(263,436)"/>
<path d="M0 0 C10.56 0 21.12 0 32 0 C32.495 5.94 32.495 5.94 33 12 C35.89269992 15.97750241 39.44001635 18.07975629 43.69921875 20.4609375 C44.81449951 21.09056396 45.92978027 21.72019043 47.07885742 22.36889648 C48.28172057 23.03762952 49.48460183 23.70632996 50.6875 24.375 C51.92671937 25.07205449 53.16540045 25.77006675 54.40356445 26.46899414 C56.96928707 27.91689161 59.53681869 29.36150243 62.10546875 30.80419922 C67.74623725 33.97819074 73.35558145 37.2066326 78.96133423 40.44195557 C80.66865651 41.42663226 82.37765472 42.40840121 84.08666992 43.39013672 C85.11381104 43.98197754 86.14095215 44.57381836 87.19921875 45.18359375 C88.10502686 45.70493896 89.01083496 46.22628418 89.9440918 46.76342773 C92 48 92 48 93 49 C93.09353163 50.68801985 93.11744791 52.37995207 93.11352539 54.07055664 C93.11341209 55.69212425 93.11341209 55.69212425 93.11329651 57.34645081 C93.10813522 58.5224736 93.10297394 59.6984964 93.09765625 60.91015625 C93.0962413 62.10732773 93.09482635 63.30449921 93.09336853 64.53794861 C93.08774979 68.37949066 93.07519411 72.22097543 93.0625 76.0625 C93.05748741 78.65950437 93.05292409 81.25650965 93.04882812 83.85351562 C93.03777427 90.23569679 93.02101792 96.6178443 93 103 C92.2886792 103.00410889 91.5773584 103.00821777 90.84448242 103.01245117 C87.62464003 103.04532549 84.40670559 103.1159621 81.1875 103.1875 C79.50817383 103.19620117 79.50817383 103.19620117 77.79492188 103.20507812 C76.72177734 103.23408203 75.64863281 103.26308594 74.54296875 103.29296875 C73.55321045 103.3086792 72.56345215 103.32438965 71.54370117 103.34057617 C68.76254226 103.77220907 68.76254226 103.77220907 67.21606445 106.48168945 C66.81476318 107.31273193 66.41346191 108.14377441 66 109 C64.13077346 110.86922654 61.50248831 110.29230229 59.0078125 110.42578125 C57 110 57 110 55.39282227 108.53100586 C53.3179868 104.76066067 53.62828256 101.31175694 53.70703125 97.078125 C53.71127609 96.21813904 53.71552094 95.35815308 53.71989441 94.47210693 C53.73665884 91.7310833 53.77430655 88.99080061 53.8125 86.25 C53.82754975 84.38933355 53.84123765 82.52865555 53.85351562 80.66796875 C53.88655501 76.1116946 53.93832167 71.55597284 54 67 C53.11425293 66.72615479 52.22850586 66.45230957 51.31591797 66.17016602 C48.27964171 65.09868375 45.72915075 63.87617342 42.9453125 62.27734375 C41.52605469 61.46813477 41.52605469 61.46813477 40.078125 60.64257812 C38.61632812 59.79856445 38.61632812 59.79856445 37.125 58.9375 C35.21110681 57.84215204 33.2970402 56.74710704 31.3828125 55.65234375 C30.44293488 55.11294662 29.50305725 54.5735495 28.53469849 54.01780701 C24.56854754 51.74825697 20.58504868 49.50979714 16.60107422 47.27172852 C15.86674667 46.85894905 15.13241913 46.44616959 14.37583923 46.02088165 C12.58401494 45.01370381 10.79202471 44.0068212 9 43 C8.99635437 44.10389572 8.99270874 45.20779144 8.98895264 46.34513855 C8.95201221 56.74807173 8.89424988 67.15070864 8.81609726 77.55341625 C8.77658725 82.90159012 8.744416 88.24959848 8.72900391 93.59790039 C8.71386063 98.7592911 8.6794563 103.92022687 8.63169098 109.08141518 C8.61685317 111.05054076 8.60895761 113.01973128 8.60811615 114.98891258 C8.60575197 117.74725225 8.57871686 120.50432903 8.54589844 123.26245117 C8.5509288 124.07669052 8.55595917 124.89092987 8.56114197 125.72984314 C8.48953626 129.6194091 8.24111231 131.60061391 6.18463135 135.0070343 C4 137 4 137 0.5 137.625 C-3 137 -3 137 -5.19213867 135.1006012 C-7.79150028 130.64252491 -7.51730773 126.83761212 -7.42578125 121.76538086 C-7.42303696 120.73719742 -7.42029266 119.70901398 -7.41746521 118.64967346 C-7.40279992 115.25425494 -7.35858886 111.85997058 -7.3125 108.46484375 C-7.29274819 106.10503596 -7.27421025 103.74521773 -7.25683594 101.38539124 C-7.2157785 96.4415072 -7.16013119 91.49805693 -7.09423828 86.55444336 C-7.01087308 80.21349651 -6.96347017 73.87288508 -6.92692566 67.53151608 C-6.89494119 62.65952445 -6.84407239 57.78787111 -6.78744507 52.91610909 C-6.76252591 50.57774871 -6.74348224 48.23931817 -6.7303772 45.90086174 C-6.70921591 42.63507824 -6.66270281 39.37061982 -6.609375 36.10522461 C-6.60812119 35.13628265 -6.60686737 34.1673407 -6.60557556 33.16903687 C-6.46100294 26.63414011 -6.46100294 26.63414011 -4.08691406 23.36842346 C-2 22 -2 22 0 22 C0 14.74 0 7.48 0 0 Z " fill="#677A85" transform="translate(347,259)"/>
<path d="M0 0 C3.5386994 1.65139305 4.81070153 2.71605229 7 6 C7.27415466 9.01582336 7.27415466 9.01582336 7.30639648 12.76293945 C7.31472 13.44624329 7.32304352 14.12954712 7.33161926 14.83355713 C7.35572261 17.0935231 7.36449232 19.35320035 7.37109375 21.61328125 C7.38006105 23.18645819 7.38918292 24.75963426 7.39845276 26.33280945 C7.41494704 29.63229443 7.42264344 32.9316779 7.42553711 36.23120117 C7.43091627 40.45150969 7.46857382 44.6708589 7.51428127 48.8908968 C7.54408305 52.14150947 7.55126136 55.39189223 7.55226326 58.64262962 C7.55646074 60.19793267 7.56887627 61.7532367 7.58978081 63.30840492 C7.61675802 65.48927048 7.61185341 67.66792757 7.59936523 69.84887695 C7.60443588 71.08781204 7.60950653 72.32674713 7.61473083 73.60322571 C6.79179636 78.150456 5.27026007 79.7722957 2 83 C-1.80240541 84.26746847 -5.43619353 84.22622901 -9.40234375 84.32421875 C-11.11528427 84.38333708 -12.8281743 84.44393355 -14.54101562 84.50585938 C-17.22631449 84.60022155 -19.91064458 84.68689105 -22.59692383 84.74780273 C-33.81519112 85.01527603 -42.39832497 85.68225833 -52 92 C-52.90745972 92.54889893 -52.90745972 92.54889893 -53.83325195 93.10888672 C-59.62038971 97.15759212 -63.59995335 105.1762301 -65 112 C-65.1108507 113.58712459 -65.17538956 115.1778453 -65.20532227 116.76855469 C-65.22526749 117.70922791 -65.24521271 118.64990112 -65.26576233 119.61907959 C-65.28247482 120.62650208 -65.29918732 121.63392456 -65.31640625 122.671875 C-65.33718735 123.70942932 -65.35796844 124.74698364 -65.37937927 125.815979 C-65.44471408 129.12725258 -65.50368517 132.43860482 -65.5625 135.75 C-65.60570049 137.99610185 -65.64931527 140.24219578 -65.69335938 142.48828125 C-65.8011579 147.99210807 -65.90035123 153.49599543 -66 159 C-76.56 159 -87.12 159 -98 159 C-98 127.98 -98 96.96 -98 65 C-60.875 64.6875 -60.875 64.6875 -49.17529297 64.61206055 C-45.69860146 64.57547359 -45.69860146 64.57547359 -42.22195435 64.5349884 C-40.67976487 64.51889425 -39.13750834 64.50856851 -37.59524536 64.50288391 C-35.25177443 64.49310577 -32.90917196 64.46472475 -30.56591797 64.43237305 C-29.24687469 64.42126999 -27.92783142 64.41016693 -26.56881714 64.39872742 C-22.71392186 63.96803781 -20.28796358 63.02627687 -17 61 C-13.11228605 55.76837228 -13.59140678 50.11357519 -13.62890625 43.87109375 C-13.61153119 41.68033692 -13.59394673 39.48958175 -13.57617188 37.29882812 C-13.56608323 33.86007726 -13.56250795 30.42143111 -13.56420898 26.98266602 C-13.56064227 23.65349246 -13.53331967 20.32512415 -13.50390625 16.99609375 C-13.51208878 15.96890732 -13.5202713 14.94172089 -13.52870178 13.88340759 C-13.45417146 6.74438987 -13.45417146 6.74438987 -11.09350586 2.87524414 C-7.43150091 -0.40497277 -4.86936229 -0.33012626 0 0 Z " fill="#39A9FE" transform="translate(445,100)"/>
<path d="M0 0 C0.33 0 0.66 0 1 0 C1.00410889 1.31194336 1.00821777 2.62388672 1.01245117 3.97558594 C1.03422523 8.84382398 1.08849732 13.71125179 1.15258789 18.57910156 C1.17578291 20.6857934 1.19016712 22.79260144 1.19555664 24.89941406 C1.20483509 27.92847233 1.24580177 30.95569904 1.29296875 33.984375 C1.2890361 34.92617615 1.28510345 35.86797729 1.28105164 36.83831787 C1.33231615 42.13239541 1.33231615 42.13239541 4.18359375 46.41357422 C5.11300781 46.93709473 6.04242188 47.46061523 7 48 C7.90983643 48.56122559 8.81967285 49.12245117 9.75708008 49.70068359 C11.24824341 50.54107178 11.24824341 50.54107178 12.76953125 51.3984375 C13.89512451 52.03644287 15.02071777 52.67444824 16.18041992 53.33178711 C16.77309662 53.66516083 17.36577332 53.99853455 17.97640991 54.3420105 C21.10659516 56.10306162 24.22840991 57.87886071 27.3515625 59.65234375 C27.98674301 60.01250076 28.62192352 60.37265778 29.27635193 60.74372864 C35.77290056 64.43031555 42.23473493 68.17482538 48.6875 71.9375 C49.71399658 72.5341748 50.74049316 73.13084961 51.7980957 73.74560547 C52.73484131 74.2923291 53.67158691 74.83905273 54.63671875 75.40234375 C55.45873779 75.88179443 56.28075684 76.36124512 57.12768555 76.85522461 C59 78 59 78 60 79 C60.09268999 80.35094982 60.11747326 81.70667091 60.11352539 83.06079102 C60.11341209 84.35201622 60.11341209 84.35201622 60.11329651 85.66932678 C60.10813522 86.60473801 60.10297394 87.54014923 60.09765625 88.50390625 C60.0962413 89.45692123 60.09482635 90.40993622 60.09336853 91.39183044 C60.08775152 94.44875165 60.07519616 97.50560077 60.0625 100.5625 C60.05748719 102.62955624 60.05292391 104.69661362 60.04882812 106.76367188 C60.03862558 111.84249833 60.01905356 116.92116806 60 122 C52.41 122 44.82 122 37 122 C36.67 123.65 36.34 125.3 36 127 C34.375 128.875 34.375 128.875 32 130 C25.92183572 129.89336554 25.92183572 129.89336554 23.26879883 127.32226562 C21.58712667 124.24432343 21.89455776 122.37570051 22.26171875 118.90625 C23.57998803 106.14178926 23.57998803 106.14178926 19.14501953 94.70703125 C14.18283996 90.92045598 8.57444113 88.84698679 2.77929688 86.6640625 C-5.89431269 83.08505729 -13.93421501 77.75670858 -22 73 C-21.99333817 73.92850266 -21.98667633 74.85700531 -21.97981262 75.81364441 C-21.91967664 84.56816514 -21.87401289 93.32261639 -21.84456348 102.07729626 C-21.82891421 106.57806911 -21.80768946 111.07867115 -21.77368164 115.5793457 C-21.74106179 119.92356862 -21.72314143 124.26762733 -21.71536827 128.61196327 C-21.70982947 130.26855364 -21.69901348 131.92513512 -21.68280983 133.5816555 C-21.6610003 135.90383632 -21.65803449 138.2253405 -21.65942383 140.54760742 C-21.64324509 141.57260094 -21.64324509 141.57260094 -21.6267395 142.61830139 C-21.65700243 147.29963326 -22.63910678 150.63910678 -26 154 C-32.1310816 154.57840392 -32.1310816 154.57840392 -35.1971283 152.53746033 C-37.84919731 148.80479322 -37.56793311 145.56610597 -37.53344727 141.08813477 C-37.54206284 140.18850006 -37.55067841 139.28886536 -37.55955505 138.36196899 C-37.58225749 135.38815538 -37.57546802 132.41528091 -37.56640625 129.44140625 C-37.57164016 127.3740155 -37.57791579 125.30662714 -37.58518982 123.23924255 C-37.59560211 118.90571865 -37.59102089 114.57252294 -37.57641602 110.23901367 C-37.5592325 104.68578927 -37.58271418 99.13359994 -37.61790562 93.58049107 C-37.63986802 89.31077722 -37.63844081 85.04131144 -37.6301403 80.77155876 C-37.62932005 78.72423099 -37.6361976 76.67688513 -37.65091133 74.62961006 C-37.66833437 71.76618001 -37.65383313 68.90461482 -37.63110352 66.04125977 C-37.64279572 65.19590164 -37.65448792 64.35054352 -37.66653442 63.47956848 C-37.59677649 59.15973942 -37.36613257 57.47714792 -34.64805603 53.93492126 C-32 52 -32 52 -29 52 C-29 45.73 -29 39.46 -29 33 C-19.43 33 -9.86 33 0 33 C0 22.11 0 11.22 0 0 Z " fill="#677A84" transform="translate(120,294)"/>
<path d="M0 0 C17.82 0 35.64 0 54 0 C54 31.35 54 62.7 54 95 C72.48 95 90.96 95 110 95 C110 95.33 110 95.66 110 96 C73.7 96 37.4 96 0 96 C0 64.32 0 32.64 0 0 Z " fill="#D5E7FF" transform="translate(388,409)"/>
<path d="M0 0 C36.3 0 72.6 0 110 0 C110 14.85 110 29.7 110 45 C73.7 45 37.4 45 0 45 C0 30.15 0 15.3 0 0 Z " fill="#F9E998" transform="translate(139,460)"/>
<path d="M0 0 C3.4375 2 3.4375 2 6 5 C6.74618465 7.82524877 6.81866657 10.19314319 6 13 C2.75093525 18.17950013 -1.0568358 19.69235258 -6.55859375 21.734375 C-7.83162354 22.21982033 -7.83162354 22.21982033 -9.13037109 22.71507263 C-11.89099269 23.75148202 -14.66180647 24.75470704 -17.4375 25.75 C-18.37884796 26.09237701 -19.32019592 26.43475403 -20.29006958 26.7875061 C-34.92779834 32.04435553 -47.4580772 34.58773288 -63.05859375 33.91796875 C-72.29518822 33.64982888 -80.09499926 37.21260652 -87.0625 43.09765625 C-97.64948119 53.49253496 -97.47768957 68.3662851 -97.6875 82.25 C-97.72076069 83.78518372 -97.75525803 85.32034116 -97.79101562 86.85546875 C-97.87717465 90.5703254 -97.93807249 94.28434953 -98 98 C-107.57 98 -117.14 98 -127 98 C-127 70.61 -127 43.22 -127 15 C-139.21 15 -151.42 15 -164 15 C-164 14.67 -164 14.34 -164 14 C-163.13260098 14.01024436 -163.13260098 14.01024436 -162.24767876 14.02069569 C-147.9724104 14.18462154 -133.69803747 14.2724817 -119.42184258 14.28240681 C-112.51679804 14.2889186 -105.6134943 14.31867566 -98.70898438 14.40795898 C-67.38156286 14.80021675 -39.16487558 14.49903938 -10.30105591 1.17253113 C-6.60540905 -0.14015824 -3.89455916 -0.35510715 0 0 Z " fill="#529297" transform="translate(218,229)"/>
<path d="M0 0 C18.15 0 36.3 0 55 0 C55 22.11 55 44.22 55 67 C73.15 67 91.3 67 110 67 C110 67.33 110 67.66 110 68 C73.7 68 37.4 68 0 68 C0 45.56 0 23.12 0 0 Z " fill="#F6DDCE" transform="translate(263,437)"/>
<path d="M0 0 C10.89 0 21.78 0 33 0 C33 7.26 33 14.52 33 22 C31.02 22.99 31.02 22.99 29 24 C27.84914538 26.30170924 27.86338154 27.62761772 27.84178162 30.18875122 C27.82709839 31.50548325 27.82709839 31.50548325 27.81211853 32.84881592 C27.80636307 33.81410217 27.8006076 34.77938843 27.79467773 35.77392578 C27.77982834 37.29592087 27.77982834 37.29592087 27.76467896 38.84866333 C27.73300331 42.21418903 27.70828255 45.57972887 27.68359375 48.9453125 C27.66302946 51.27416356 27.64203313 53.60301084 27.62062073 55.93185425 C27.56534584 62.07046455 27.51596047 68.20910883 27.46777344 74.34777832 C27.41759792 80.60818517 27.36189127 86.86854249 27.30664062 93.12890625 C27.19899279 105.41923015 27.09807348 117.70959597 27 130 C18.09 130 9.18 130 0 130 C0 87.1 0 44.2 0 0 Z " fill="#8EA2AC" transform="translate(314,259)"/>
<path d="M0 0 C0.33 0 0.66 0 1 0 C1 18.15 1 36.3 1 55 C11.89 55 22.78 55 34 55 C34 61.27 34 67.54 34 74 C31.03 74.99 31.03 74.99 28 76 C26.7085181 79.87444569 26.8226651 83.56241833 26.79467773 87.60229492 C26.77982834 88.91968407 26.77982834 88.91968407 26.76467896 90.26368713 C26.73306881 93.1692535 26.70830839 96.07483622 26.68359375 98.98046875 C26.66302381 100.99400764 26.64202732 103.00754222 26.62062073 105.02107239 C26.56540423 110.32287097 26.51599305 115.62470849 26.46777344 120.92657471 C26.41755537 126.33585072 26.36187089 131.74507013 26.30664062 137.15429688 C26.1990642 147.7694829 26.09761804 158.38471806 26 169 C21.85418113 169.02886751 17.70838784 169.04675327 13.5625 169.0625 C12.37849609 169.07087891 11.19449219 169.07925781 9.97460938 169.08789062 C8.84990234 169.09111328 7.72519531 169.09433594 6.56640625 169.09765625 C5.00321655 169.10551147 5.00321655 169.10551147 3.40844727 169.11352539 C1 169 1 169 0 168 C-0.09695318 165.83573826 -0.12186765 163.66824747 -0.12025452 161.5018158 C-0.12110894 160.81492457 -0.12196337 160.12803335 -0.12284368 159.42032725 C-0.12450045 157.10172545 -0.11897393 154.78319483 -0.11352539 152.46459961 C-0.11324354 150.80930076 -0.11340122 149.15400178 -0.1139679 147.498703 C-0.11425594 142.99063067 -0.10835819 138.48258471 -0.10139394 133.97451854 C-0.09516145 129.26862263 -0.09455668 124.56272618 -0.09336853 119.85682678 C-0.0902549 110.93911366 -0.08204109 102.02141273 -0.07201904 93.10370499 C-0.06085888 82.95393703 -0.0553477 72.8041685 -0.05032361 62.65439594 C-0.03985851 41.76959047 -0.02225846 20.884796 0 0 Z " fill="#8BA0A9" transform="translate(57,272)"/>
<path d="M0 0 C4.80165531 1.68422871 9.11641917 4.37552118 13.49511719 6.93115234 C15.72276659 8.20626792 17.95063785 9.48099598 20.17871094 10.75537109 C21.32065918 11.41327637 22.46260742 12.07118164 23.63916016 12.74902344 C29.24606599 15.97175131 34.90633923 19.09965548 40.55761719 22.24365234 C46.28691209 25.43172036 52.00231477 28.6403814 57.65527344 31.96240234 C58.83875366 32.6575293 58.83875366 32.6575293 60.04614258 33.36669922 C64.87446977 36.57232198 64.87446977 36.57232198 65.53903198 39.74118042 C65.55918365 40.50109283 65.57933533 41.26100525 65.60009766 42.04394531 C65.62957489 42.90849335 65.65905212 43.77304138 65.68942261 44.66378784 C65.71312424 46.06070358 65.71312424 46.06070358 65.73730469 47.48583984 C65.76237091 48.44636261 65.78743713 49.40688538 65.81326294 50.39651489 C65.86224565 52.42889511 65.90379038 54.46146615 65.93847656 56.49414062 C65.99478674 59.60042367 66.08316455 62.70464042 66.17480469 65.81005859 C66.21841177 67.78527713 66.26014033 69.76053821 66.29980469 71.73583984 C66.32775116 72.66306854 66.35569763 73.59029724 66.38449097 74.54562378 C66.44420675 79.46821983 66.33044509 82.73503705 63.12011719 86.74365234 C61.25089065 88.61287888 58.6226055 88.03595463 56.12792969 88.16943359 C54.12011719 87.74365234 54.12011719 87.74365234 52.51293945 86.2746582 C50.43810399 82.50431302 50.74839975 79.05540929 50.82714844 74.82177734 C50.83139328 73.96179138 50.83563812 73.10180542 50.8400116 72.21575928 C50.85677603 69.47473565 50.89442373 66.73445295 50.93261719 63.99365234 C50.94766693 62.13298589 50.96135483 60.2723079 50.97363281 58.41162109 C51.0066722 53.85534694 51.05843885 49.29962518 51.12011719 44.74365234 C50.23437012 44.46980713 49.34862305 44.19596191 48.43603516 43.91381836 C45.3997589 42.8423361 42.84926794 41.61982576 40.06542969 40.02099609 C38.64617187 39.21178711 38.64617187 39.21178711 37.19824219 38.38623047 C35.73644531 37.5422168 35.73644531 37.5422168 34.24511719 36.68115234 C32.33122399 35.58580438 30.41715738 34.49075938 28.50292969 33.39599609 C27.56305206 32.85659897 26.62317444 32.31720184 25.65481567 31.76145935 C21.68866473 29.49190931 17.70516586 27.25344949 13.72119141 25.01538086 C12.98686386 24.60260139 12.25253632 24.18982193 11.49595642 23.764534 C9.70413213 22.75735615 7.9121419 21.75047355 6.12011719 20.74365234 C6.11647156 21.84754807 6.11282593 22.95144379 6.10906982 24.08879089 C6.0721294 34.49172408 6.01436707 44.89436098 5.93621445 55.2970686 C5.89670444 60.64524247 5.86453319 65.99325082 5.84912109 71.34155273 C5.83397782 76.50294345 5.79957349 81.66387921 5.75180817 86.82506752 C5.73697036 88.7941931 5.7290748 90.76338362 5.72823334 92.73256493 C5.72586916 95.4909046 5.69883405 98.24798137 5.66601562 101.00610352 C5.67104599 101.82034286 5.67607635 102.63458221 5.68125916 103.47349548 C5.60965345 107.36306145 5.3612295 109.34426625 3.30474854 112.75068665 C1.12011719 114.74365234 1.12011719 114.74365234 -2.37988281 115.36865234 C-5.87988281 114.74365234 -5.87988281 114.74365234 -8.07202148 112.84425354 C-10.67138309 108.38617725 -10.39719055 104.58126446 -10.30566406 99.5090332 C-10.30291977 98.48084976 -10.30017548 97.45266632 -10.29734802 96.39332581 C-10.28268273 92.99790728 -10.23847167 89.60362293 -10.19238281 86.20849609 C-10.172631 83.84868831 -10.15409306 81.48887007 -10.13671875 79.12904358 C-10.09566131 74.18515955 -10.04001401 69.24170927 -9.97412109 64.2980957 C-9.89075589 57.95714886 -9.84335298 51.61653742 -9.80680847 45.27516842 C-9.774824 40.4031768 -9.7239552 35.53152346 -9.66732788 30.65976143 C-9.64240873 28.32140105 -9.62336505 25.98297052 -9.61026001 23.64451408 C-9.58909872 20.37873059 -9.54258562 17.11427217 -9.48925781 13.84887695 C-9.488004 12.879935 -9.48675018 11.91099304 -9.48545837 10.91268921 C-9.34134602 4.39859711 -9.34134602 4.39859711 -7.03173828 1.12062073 C-4.50229952 -0.49796252 -2.9264215 -0.6248725 0 0 Z " fill="#000000" transform="translate(349.8798828125,281.25634765625)"/>
<path d="M0 0 C3.2628316 1.39955102 6.22747285 3.20829584 9.25 5.0625 C11.1081009 6.16491073 12.96754602 7.26505803 14.828125 8.36328125 C15.81876953 8.95189941 16.80941406 9.54051758 17.83007812 10.14697266 C21.16801072 12.09821329 24.53623432 13.98882134 27.921875 15.85546875 C28.50954651 16.17955215 29.09721802 16.50363556 29.70269775 16.83753967 C32.57374669 18.41853554 35.44718333 19.99512247 38.32128906 21.57055664 C58.96228358 32.96228358 58.96228358 32.96228358 62 36 C62.43076693 41.05246018 62.59818878 46.11467081 62.77734375 51.18164062 C62.84219287 52.88717241 62.91795603 54.59232585 63.00488281 56.296875 C63.12988292 58.75489229 63.22089379 61.21214836 63.3046875 63.671875 C63.34923065 64.43038757 63.3937738 65.18890015 63.43966675 65.97039795 C63.53588699 69.9890744 63.16892151 71.7777216 60.70751953 75.01660156 C58 77 58 77 54.375 77.0625 C50.62191924 75.88097458 49.84894289 75.36235922 48 72 C47.91674805 69.16601562 47.91674805 69.16601562 48.26171875 65.90625 C49.57998803 53.14178926 49.57998803 53.14178926 45.14501953 41.70703125 C40.18283996 37.92045598 34.57444113 35.84698679 28.77929688 33.6640625 C20.10568731 30.08505729 12.06578499 24.75670858 4 20 C4.00666183 20.92850266 4.01332367 21.85700531 4.02018738 22.81364441 C4.08032336 31.56816514 4.12598711 40.32261639 4.15543652 49.07729626 C4.17108579 53.57806911 4.19231054 58.07867115 4.22631836 62.5793457 C4.25893821 66.92356862 4.27685857 71.26762733 4.28463173 75.61196327 C4.29017053 77.26855364 4.30098652 78.92513512 4.31719017 80.5816555 C4.3389997 82.90383632 4.34196551 85.2253405 4.34057617 87.54760742 C4.351362 88.23093643 4.36214783 88.91426544 4.3732605 89.61830139 C4.34299757 94.29963326 3.36089322 97.63910678 0 101 C-6.13022147 101.57832278 -6.13022147 101.57832278 -9.19812012 99.53845215 C-11.85173712 95.80008988 -11.56033304 92.55507073 -11.51757812 88.07226562 C-11.5245874 87.17102463 -11.53159668 86.26978363 -11.53881836 85.3412323 C-11.55642144 82.36259131 -11.54476731 79.38490063 -11.53125 76.40625 C-11.53394425 74.33646462 -11.5378261 72.26668046 -11.54284668 70.19689941 C-11.54874487 65.85917103 -11.54016829 61.52177212 -11.52148438 57.18408203 C-11.49869483 51.6219078 -11.51181617 46.06050558 -11.53577423 40.49835968 C-11.55022342 36.22440771 -11.54563021 31.95063899 -11.53526306 27.67668152 C-11.53259335 25.62574675 -11.53587408 23.57479539 -11.54518127 21.52388 C-11.55533224 18.65804938 -11.539866 15.7934716 -11.51757812 12.92773438 C-11.52567505 12.07878098 -11.53377197 11.22982758 -11.54211426 10.35514832 C-11.48727345 6.55186492 -11.44989031 4.61876761 -9.16589355 1.47741699 C-5.8607299 -0.77712822 -3.94426152 -0.58358971 0 0 Z " fill="#010101" transform="translate(94,347)"/>
<path d="M0 0 C18.15 0 36.3 0 55 0 C55 14.52 55 29.04 55 44 C36.85 44 18.7 44 0 44 C0 29.48 0 14.96 0 0 Z " fill="#F5D844" transform="translate(194,460)"/>
<path d="M0 0 C5.92883841 2.73638696 10.42760416 7.92185103 12.7734375 14.015625 C15.31281188 25.50141064 12.92569241 36.41409116 7.53125 46.625 C3.26871371 51.71636279 -1.30635694 56.88996314 -8.20703125 57.55078125 C-15.55080875 57.74377125 -19.03814084 56.75800417 -24.4921875 51.65234375 C-29.49653168 46.51074962 -31.67606523 41.11046707 -33.71875 34.3125 C-34.21375 32.8275 -34.21375 32.8275 -34.71875 31.3125 C-35.50378433 22.0603097 -35.43544339 14.04421587 -29.71875 6.3125 C-22.0149668 -2.00206908 -10.59202084 -2.67844205 0 0 Z " fill="#EEC9BA" transform="translate(358.71875,86.6875)"/>
<path d="M0 0 C1.02963867 -0.02416992 1.02963867 -0.02416992 2.08007812 -0.04882812 C8.26595107 -0.05468042 12.56565136 1.72719617 17.875 4.9375 C23.20880034 10.4154571 24.46324747 16.07774233 24.6875 23.625 C24.40446804 33.692851 21.89949499 43.65516525 14.5546875 50.9296875 C10.25748917 54.81762885 6.79119621 56.90407707 1 57.8125 C-5.3393144 56.98111451 -10.37374188 53.99105233 -14.6796875 49.26171875 C-22.07384787 38.90621555 -22.89860597 27.63797224 -21.8125 15.3125 C-20.07629202 8.5442316 -15.81552636 4.93517244 -10.11328125 1.19921875 C-6.77934686 -0.08567617 -3.52128935 -0.01625711 0 0 Z " fill="#F3D9CB" transform="translate(89.8125,167.6875)"/>
<path d="M0 0 C36.3 0 72.6 0 110 0 C110 6.27 110 12.54 110 19 C73.7 19 37.4 19 0 19 C0 12.73 0 6.46 0 0 Z " fill="#EDF0F2" transform="translate(14,486)"/>
<path d="M0 0 C0 19.14 0 38.28 0 58 C-8.29477539 56.81503209 -11.42164912 54.47525019 -16.51171875 48.109375 C-22.88481647 38.69326666 -24.27459404 28.18275905 -23 17 C-20.97888081 10.34930864 -17.7045314 5.88393628 -12 2 C-11.38125 1.566875 -10.7625 1.13375 -10.125 0.6875 C-8 0 -8 0 0 0 Z " fill="#F2D9CA" transform="translate(347,86)"/>
<path d="M0 0 C7.25123873 0 10.6585785 0.97960561 16.6875 4.625 C22.02130034 10.1029571 23.27574747 15.76524233 23.5 23.3125 C23.21696804 33.380351 20.71199499 43.34266525 13.3671875 50.6171875 C7.74510806 55.7038308 3.70974084 57.30234278 -4 57 C-2.02 56.505 -2.02 56.505 0 56 C0 37.52 0 19.04 0 0 Z " fill="#EEC8BA" transform="translate(91,168)"/>
<path d="M0 0 C17.82 0 35.64 0 54 0 C54 5.94 54 11.88 54 18 C36.18 18 18.36 18 0 18 C0 12.06 0 6.12 0 0 Z " fill="#C4CCCF" transform="translate(70,486)"/>
<path d="M0 0 C14.19 0 28.38 0 43 0 C42.34 1.98 41.68 3.96 41 6 C39.60971456 11.13336161 40.39738254 13.41939327 43 18 C43 18.66 43 19.32 43 20 C28.81 20 14.62 20 0 20 C0 13.4 0 6.8 0 0 Z " fill="#DF6278" transform="translate(450,14)"/>
<path d="M0 0 C12.87 0 25.74 0 39 0 C43 7 43 7 43 9 C28.81 9 14.62 9 0 9 C0 6.03 0 3.06 0 0 Z " fill="#C53C50" transform="translate(450,25)"/>
</svg>
