<?xml version="1.0" encoding="UTF-8"?>
<svg version="1.1" xmlns="http://www.w3.org/2000/svg" width="512" height="512">
<path d="M0 0 C42.51799372 3.03053785 80.82006494 20.58240109 109.30615234 52.70458984 C132.32291891 79.49646411 144.50416421 111.98379643 147 147 C146.05157227 147.01981934 145.10314453 147.03963867 144.12597656 147.06005859 C140.59967636 147.13825761 137.07379639 147.22495366 133.54785156 147.31738281 C132.02319342 147.35561266 130.49844693 147.390476 128.97363281 147.421875 C126.77897619 147.46765662 124.5849246 147.52562766 122.390625 147.5859375 C121.37165131 147.60326431 121.37165131 147.60326431 120.33209229 147.62094116 C116.78633514 147.7309619 113.91736326 147.86796131 111 150 C110.17256804 152.42594747 109.57857513 154.63514803 109.0625 157.125 C106.85494378 166.3388151 103.95409812 172.36545213 96.03515625 177.8125 C89.73479534 181.48871827 82.70811943 181.94004398 75.671875 180.53515625 C69.09796141 178.6457151 64.32361222 175.51315376 60.52734375 169.7734375 C57.59534775 164.38813872 56.31120108 159.44194922 55.75 153.34765625 C55.18431346 150.88374331 55.18431346 150.88374331 53.16723633 149.38525391 C48.37472309 147.28915276 43.75260544 147.51926733 38.57421875 147.48828125 C37.47149124 147.47033005 36.36876373 147.45237885 35.23262024 147.43388367 C31.71761881 147.37978996 28.20275313 147.3458871 24.6875 147.3125 C22.30141341 147.2793262 19.91534473 147.24483648 17.52929688 147.20898438 C11.68631964 147.12406393 5.84332481 147.05570992 0 147 C-0.00586624 146.38469925 -0.01173248 145.7693985 -0.01777649 145.13545227 C-0.0817438 138.72745056 -0.16617237 132.31994952 -0.26245117 125.91235352 C-0.29569167 123.52147017 -0.32372629 121.13050852 -0.34643555 118.73950195 C-0.37999683 115.30125581 -0.43231524 111.86372671 -0.48828125 108.42578125 C-0.49467117 107.35789871 -0.5010611 106.29001617 -0.50764465 105.18977356 C-0.52457989 98.04567186 -0.52457989 98.04567186 -4 92 C-7.0912661 90.96291231 -7.0912661 90.96291231 -10.625 90.5625 C-18.87031928 89.03937085 -24.7812317 86.23593431 -29.9375 79.5 C-34.05362832 72.97096887 -34.84642115 66.6072101 -34 59 C-32.07561691 52.10064926 -28.11743298 45.89577704 -22.22265625 41.75 C-17.50517329 39.1259604 -12.73132883 38.22661527 -7.41796875 37.4921875 C-4.75333839 37.10826263 -4.75333839 37.10826263 -2 35 C-0.84160957 31.52482871 -0.77198782 28.3272998 -0.68359375 24.70703125 C-0.66281265 24.00100266 -0.64203156 23.29497406 -0.62062073 22.56755066 C-0.55532509 20.31596449 -0.49633353 18.06426338 -0.4375 15.8125 C-0.39429575 14.2844934 -0.35068084 12.75649836 -0.30664062 11.22851562 C-0.19966426 7.48579438 -0.09834078 3.7429577 0 0 Z " fill="#F44335" transform="translate(264,102)"/>
<path d="M0 0 C7.92 0 15.84 0 24 0 C24.70125 1.815 25.4025 3.63 26.125 5.5 C30.77175557 16.57671986 37.80994158 24.99808504 48.9375 29.9375 C59.36189812 33.5939091 71.34389893 33.73694264 81.57421875 29.328125 C85.81479132 27.00639445 89.44287379 24.26418641 93 21 C93.55429688 20.49984375 94.10859375 19.9996875 94.6796875 19.484375 C100.27328443 13.74586623 101.61400621 7.90065217 105 0 C118.86 0 132.72 0 147 0 C147.04898438 3.56296875 147.09796875 7.1259375 147.1484375 10.796875 C147.20243842 14.24548565 147.25974948 17.69402649 147.31738281 21.14257812 C147.35567905 23.54031174 147.39053076 25.93810293 147.421875 28.3359375 C147.46751105 31.78145942 147.5255087 35.22658472 147.5859375 38.671875 C147.60326431 40.28144073 147.60326431 40.28144073 147.62094116 41.92352295 C147.6507457 43.42462616 147.6507457 43.42462616 147.68115234 44.95605469 C147.70113785 46.27509796 147.70113785 46.27509796 147.7215271 47.62078857 C148.02220396 50.18970577 148.62640377 51.81846624 150 54 C153.14293817 55.76790272 156.36695956 56.25656126 159.875 56.875 C167.92452985 58.43952286 173.39035946 62.18331944 178 69 C181.803069 75.74830289 182.06857325 83.17717273 180.4140625 90.64453125 C178.09575049 97.56756391 173.92412195 101.85623807 168 106 C165.13151209 107.34269647 162.60441531 107.8840587 159.515625 108.4765625 C158.62359375 108.64929688 157.7315625 108.82203125 156.8125 109 C155.55373047 109.2165625 155.55373047 109.2165625 154.26953125 109.4375 C151.74097281 109.92839774 151.74097281 109.92839774 149 112 C148.08812389 114.73562834 147.85269741 116.46145475 147.79467773 119.2878418 C147.77449585 120.16049683 147.75431396 121.03315186 147.73352051 121.93225098 C147.71704468 122.84535034 147.70056885 123.75844971 147.68359375 124.69921875 C147.65561707 125.96264099 147.65561707 125.96264099 147.6270752 127.25158691 C147.55879659 130.39678496 147.49863568 133.542155 147.4375 136.6875 C147.293125 143.720625 147.14875 150.75375 147 158 C130.17 158 113.34 158 96 158 C94.02 153.05 92.04 148.1 90 143 C83.21187508 132.42833005 75.5149346 125.60228102 65.1628418 118.640625 C58.32191605 113.97080716 52.14929367 108.53332733 46 103 C45.32324219 102.39671875 44.64648438 101.7934375 43.94921875 101.171875 C16.09409768 74.84579399 3.11949631 37.17399769 0 0 Z " fill="#F44235" transform="translate(101,265)"/>
<path d="M0 0 C0 7.92 0 15.84 0 24 C-1.85625 24.7425 -3.7125 25.485 -5.625 26.25 C-18.61603021 31.70227294 -25.55799385 39.05240818 -31 52 C-34.0364587 60.75972327 -32.93408141 73.20687624 -29.328125 81.57421875 C-27.00639445 85.81479132 -24.26418641 89.44287379 -21 93 C-20.49984375 93.55429688 -19.9996875 94.10859375 -19.484375 94.6796875 C-13.74586623 100.27328443 -7.90065217 101.61400621 0 105 C0 118.86 0 132.72 0 147 C-5.32705078 147.05607422 -5.32705078 147.05607422 -10.76171875 147.11328125 C-14.20375709 147.15950108 -17.64568689 147.21073322 -21.08764648 147.26245117 C-23.47852983 147.29569167 -25.86949148 147.32372629 -28.26049805 147.34643555 C-31.69874419 147.37999683 -35.13627329 147.43231524 -38.57421875 147.48828125 C-40.17604256 147.49786613 -40.17604256 147.49786613 -41.81022644 147.50764465 C-48.95432814 147.52457989 -48.95432814 147.52457989 -55 151 C-56.03708769 154.0912661 -56.03708769 154.0912661 -56.4375 157.625 C-57.95610914 165.8458506 -60.76370602 171.74843772 -67.4375 176.9375 C-74.17860287 181.21522392 -81.56282117 182.01889212 -89.29296875 180.5703125 C-96.04950307 178.68639071 -101.51134666 174.95301339 -105.28125 168.96484375 C-107.79827371 163.71151017 -108.9878084 158.20096069 -110.09375 152.50390625 C-110.74883102 149.95032402 -110.74883102 149.95032402 -112.59472656 148.86938477 C-115.84395047 147.69495457 -118.97621111 147.64399681 -122.390625 147.5859375 C-123.09523865 147.56657135 -123.79985229 147.5472052 -124.52581787 147.5272522 C-126.76709039 147.46767265 -129.00841489 147.42115877 -131.25 147.375 C-132.77345938 147.33680021 -134.29689762 147.29774731 -135.8203125 147.2578125 C-139.54668106 147.16198982 -143.27320835 147.07787893 -147 147 C-143.96961645 104.48417109 -126.41874527 66.17678753 -94.29516602 37.69384766 C-68.53031288 15.55602851 -34.39081827 0 0 0 Z " fill="#F44335" transform="translate(248,102)"/>
<path d="M0 0 C13.86 0 27.72 0 42 0 C43.98 4.62 45.96 9.24 48 14 C52.98927694 20.34350925 57.69909622 25.4852792 65 29 C65.62777344 29.31710937 66.25554687 29.63421875 66.90234375 29.9609375 C76.32531496 33.90375463 88.40954997 33.32117167 97.9375 30.0625 C108.11985022 25.53135415 115.26513568 18.01549183 120 8 C120.99 5.36 121.98 2.72 123 0 C130.92 0 138.84 0 147 0 C143.61831677 43.03960476 126.18297005 81.16583641 93.5703125 110.05078125 C88.28585374 114.54061844 82.52562634 118.3890555 76.828125 122.328125 C63.01489822 131.90547317 57.45690529 141.85773678 51 158 C34.17 158 17.34 158 0 158 C0 146.45 0 134.9 0 123 C3.96 121.35 7.92 119.7 12 118 C22.38012856 111.23035094 29.05602148 103.25576959 32 91 C33.66025089 79.18591486 32.00777273 68.09763064 25.015625 58.1875 C17.93304388 49.74867994 10.21395577 45.83023341 0 42 C0 28.14 0 14.28 0 0 Z " fill="#F44335" transform="translate(264,265)"/>
<path d="M0 0 C38.28 0 76.56 0 116 0 C115 9 115 9 113.06469727 11.53015137 C108.66267331 13.64139053 104.79131967 13.55886034 99.96484375 13.51757812 C98.95777374 13.5245874 97.95070374 13.53159668 96.91311646 13.53881836 C93.58762964 13.55640867 90.26299532 13.5447714 86.9375 13.53125 C84.62491696 13.5339446 82.31233502 13.53782676 79.99975586 13.54284668 C75.15434985 13.54874316 70.30923889 13.54017361 65.46386719 13.52148438 C59.25278741 13.49869516 53.04239901 13.51181738 46.8313446 13.53577423 C42.05638418 13.55022791 37.28158768 13.5456281 32.50662231 13.53526306 C30.21648069 13.53259461 27.92632419 13.53586967 25.63619995 13.54518127 C22.43545097 13.55533937 19.23582182 13.53985498 16.03515625 13.51757812 C15.08851105 13.52567505 14.14186584 13.53377197 13.16653442 13.54211426 C9.20592855 13.4910432 6.54128204 13.25960237 2.93530273 11.53015137 C1 9 1 9 0 0 Z " fill="#F44335" transform="translate(198,464)"/>
<path d="M0 0 C25.08 0 50.16 0 76 0 C73 13 73 13 69 18 C65.93453639 19.0218212 63.80960315 19.13859859 60.59814453 19.16113281 C59.49334747 19.17074036 58.38855042 19.1803479 57.25027466 19.19024658 C56.05651215 19.19449646 54.86274963 19.19874634 53.6328125 19.203125 C52.40593719 19.20882507 51.17906189 19.21452515 49.91500854 19.22039795 C47.31753401 19.22985044 44.72004747 19.23638291 42.12255859 19.24023438 C38.14789951 19.24994406 34.17375653 19.28096778 30.19921875 19.3125 C27.67708641 19.31902961 25.15495036 19.32428025 22.6328125 19.328125 C21.44309845 19.3404718 20.2533844 19.3528186 19.02761841 19.36553955 C17.36096634 19.3610379 17.36096634 19.3610379 15.66064453 19.35644531 C14.68596222 19.36009094 13.71127991 19.36373657 12.70706177 19.36749268 C9.47987715 18.92939159 7.62062579 17.90625193 5 16 C1.54575978 10.75467226 1.31612956 6.5806478 0 0 Z " fill="#F44235" transform="translate(218,493)"/>
<path d="M0 0 C2.84982618 3.72931071 3.38351012 6.52661181 3.41992188 11.16381836 C3.43583374 12.38536118 3.45174561 13.60690399 3.46813965 14.86546326 C3.46844177 16.8327816 3.46844177 16.8327816 3.46875 18.83984375 C3.47585707 20.20838226 3.48355687 21.57691782 3.49182129 22.94544983 C3.5052445 25.80933929 3.50684468 28.67295318 3.50097656 31.53686523 C3.49508093 35.19673261 3.52567348 38.85527317 3.56609344 42.514884 C3.59201415 45.34004265 3.59484405 48.16488357 3.59120178 50.99014473 C3.59370583 52.99203403 3.61837082 54.99385622 3.64343262 56.99559021 C3.5665325 67.11648599 3.5665325 67.11648599 0.59179688 70.82348633 C-2.98010389 73.823062 -2.98010389 73.823062 -6 73.75 C-6.9590625 73.77320312 -6.9590625 73.77320312 -7.9375 73.796875 C-11.44484826 72.44176317 -13.36396962 70.28402789 -15 67 C-15.73627673 62.34393971 -15.65265827 57.73246123 -15.59375 53.02734375 C-15.59203697 51.65784307 -15.59210654 50.28833911 -15.59387207 48.9188385 C-15.59222316 46.05649199 -15.5736045 43.1949328 -15.54199219 40.33276367 C-15.5022771 36.67194886 -15.4979537 33.01216188 -15.50545502 29.35117245 C-15.50853044 26.52603308 -15.49638472 23.70112293 -15.47932434 20.87603951 C-15.46891979 18.87253764 -15.46844733 16.86899212 -15.46813965 14.86546326 C-15.44427185 13.03314903 -15.44427185 13.03314903 -15.41992188 11.16381836 C-15.41150269 10.09159531 -15.4030835 9.01937225 -15.39440918 7.91465759 C-14.94366368 4.58367833 -13.97525977 2.69742445 -12 0 C-7.68270631 -2.75827097 -4.581824 -1.95151763 0 0 Z " fill="#F34235" transform="translate(262,2)"/>
<path d="M0 0 C1.4387146 -0.00422974 1.4387146 -0.00422974 2.90649414 -0.00854492 C3.96731201 -0.00652069 5.02812988 -0.00449646 6.12109375 -0.00241089 C7.23154053 -0.00416321 8.3419873 -0.00591553 9.48608398 -0.00772095 C13.17693621 -0.01214208 16.86774099 -0.00920055 20.55859375 -0.00582886 C23.11067718 -0.00650182 25.66276054 -0.00747178 28.21484375 -0.00872803 C33.57162137 -0.01020536 38.9283818 -0.00814391 44.28515625 -0.00338745 C50.4864309 0.00205514 56.68767268 0.00029247 62.88894653 -0.00521386 C68.8439359 -0.01029073 74.79891502 -0.00976343 80.75390625 -0.00683212 C83.2929688 -0.00616259 85.83203217 -0.00699218 88.37109375 -0.00931168 C91.91278339 -0.01183666 95.45440892 -0.00799978 98.99609375 -0.00241089 C100.05691162 -0.00443512 101.11772949 -0.00645935 102.21069336 -0.00854492 C103.16983643 -0.0057251 104.12897949 -0.00290527 105.1171875 0 C105.95564209 0.00037703 106.79409668 0.00075405 107.65795898 0.0011425 C109.55859375 0.12698364 109.55859375 0.12698364 110.55859375 1.12698364 C110.55859375 4.42698364 110.55859375 7.72698364 110.55859375 11.12698364 C72.27859375 11.12698364 33.99859375 11.12698364 -5.44140625 11.12698364 C-5.44140625 0.00244682 -5.44140625 0.00244682 0 0 Z " fill="#F34236" transform="translate(203.44140625,437.8730163574219)"/>
<path d="M0 0 C1.2249971 -0.00960754 2.4499942 -0.01921509 3.71211243 -0.02911377 C5.05571304 -0.03396211 6.3993158 -0.03824085 7.74291992 -0.04199219 C9.11813865 -0.04774453 10.49335736 -0.05350226 11.86857605 -0.05926514 C14.75451023 -0.06977596 17.64041655 -0.07561777 20.52636719 -0.07910156 C24.21856257 -0.08458005 27.91038801 -0.10859342 31.60246754 -0.13707352 C34.44468752 -0.15573005 37.28681904 -0.16090713 40.12909508 -0.16243744 C41.48982448 -0.16545879 42.85055251 -0.17346992 44.21122169 -0.18662262 C46.11860443 -0.20374063 48.02613984 -0.19994974 49.93359375 -0.1953125 C51.01788162 -0.19895813 52.10216949 -0.20260376 53.21931458 -0.20635986 C56.57498004 0.2128655 58.45460959 1.16535435 61.16088867 3.16113281 C62.7570561 6.35346767 62.67554982 9.69574778 62.16088867 13.16113281 C60.29073773 15.59232904 58.87950522 16.80182454 56.16088867 18.16113281 C54.24732755 18.2676649 52.33005903 18.30996855 50.41357422 18.32226562 C49.20859787 18.33187317 48.00362152 18.34148071 46.76213074 18.35137939 C44.7996917 18.35775421 44.7996917 18.35775421 42.79760742 18.36425781 C41.44480894 18.37001027 40.09201048 18.37576799 38.73921204 18.38153076 C35.90035624 18.39204133 33.06152877 18.3978833 30.22265625 18.40136719 C26.5909923 18.40684542 22.95970452 18.43085832 19.32815838 18.45933914 C16.53226136 18.47799735 13.73645427 18.48317285 10.94050026 18.48470306 C8.95245142 18.48919045 6.96445076 18.50782378 4.97648621 18.52667236 C3.76205338 18.52367126 2.54762054 18.52067017 1.29638672 18.51757812 C-0.30339775 18.52304657 -0.30339775 18.52304657 -1.9355011 18.52862549 C-6.22440999 17.9858038 -8.82487185 16.17537229 -11.83911133 13.16113281 C-12.52679041 6.05511562 -12.52679041 6.05511562 -9.96411133 2.72363281 C-6.43175273 0.12631032 -4.36284958 0.02753445 0 0 Z " fill="#F44335" transform="translate(449.839111328125,247.8388671875)"/>
<path d="M0 0 C1.22814926 -0.00637985 2.45629852 -0.0127597 3.72166443 -0.01933289 C5.06322185 -0.02086155 6.4047798 -0.02197552 7.74633789 -0.02270508 C9.12252334 -0.02591873 10.49870845 -0.02928288 11.87489319 -0.03279114 C14.75905143 -0.03877774 17.64317973 -0.0406315 20.52734375 -0.04003906 C24.22064726 -0.03993742 27.9137586 -0.05359352 31.60701656 -0.07081127 C34.4491921 -0.08193632 37.29132123 -0.08395812 40.13351631 -0.08342934 C41.49505844 -0.08460854 42.85660181 -0.089027 44.21812248 -0.0967617 C46.12325434 -0.10657194 48.02844258 -0.10241662 49.93359375 -0.09765625 C51.55883217 -0.09979378 51.55883217 -0.09979378 53.21690369 -0.10197449 C56.07140594 0.14876959 57.66825307 0.55658387 60.03149414 2.14526367 C62.47944156 5.8171848 62.74585301 8.87632395 62.03149414 13.14526367 C59.82408733 16.11384524 58.54552041 16.97392158 55.03149414 18.14526367 C53.07989614 18.24896971 51.12496538 18.29383047 49.1706543 18.30639648 C47.96575348 18.31600403 46.76085266 18.32561157 45.5194397 18.33551025 C44.21630829 18.33976013 42.91317688 18.34401001 41.57055664 18.34838867 C40.2191874 18.35414298 38.86781818 18.35990068 37.51644897 18.36566162 C34.68356954 18.37616131 31.85071841 18.38201075 29.01782227 18.38549805 C25.39403412 18.3909814 21.77062196 18.41500989 18.14695168 18.44347 C15.35534585 18.46212557 12.56383009 18.46730351 9.77216721 18.46883392 C7.78854776 18.47331972 5.80497658 18.49195122 3.82144165 18.51080322 C2.61023651 18.50780212 1.39903137 18.50480103 0.15112305 18.50170898 C-0.91238373 18.50535461 -1.9758905 18.50900024 -3.07162476 18.51275635 C-6.4001768 18.09050274 -8.28033918 17.12156573 -10.96850586 15.14526367 C-12.56102229 11.9602308 -12.35980347 8.61202317 -11.96850586 5.14526367 C-9.16643667 -0.05857911 -5.49907171 0.01936032 0 0 Z " fill="#F44335" transform="translate(11.968505859375,247.854736328125)"/>
<path d="M0 0 C6.15889026 4.48810784 11.4719227 10.32490458 16.83984375 15.70703125 C17.64740616 16.51363693 18.45496857 17.32024261 19.28700256 18.15129089 C20.97812645 19.84173886 22.66800656 21.53343195 24.35668945 23.22631836 C26.95084702 25.8258748 29.55035425 28.41999675 32.15039062 31.01367188 C33.79719611 32.66113742 35.44369176 34.30891274 37.08984375 35.95703125 C37.86891586 36.73407913 38.64798798 37.51112701 39.45066833 38.3117218 C40.52297447 39.38875618 40.52297447 39.38875618 41.61694336 40.48754883 C42.24789413 41.1192952 42.87884491 41.75104156 43.52891541 42.40193176 C45.7376424 44.8013155 45.9988322 45.98968442 46.375 49.3125 C46 53 46 53 43.9375 55.9375 C41 58 41 58 37.6875 58.75 C29.44471804 57.07350198 22.9413116 48.08942329 17.16015625 42.29296875 C16.35259384 41.48636307 15.54503143 40.67975739 14.71299744 39.84870911 C13.02187355 38.15826114 11.33199344 36.46656805 9.64331055 34.77368164 C7.04915298 32.1741252 4.44964575 29.58000325 1.84960938 26.98632812 C0.20280389 25.33886258 -1.44369176 23.69108726 -3.08984375 22.04296875 C-3.86891586 21.26592087 -4.64798798 20.48887299 -5.45066833 19.6882782 C-6.16553909 18.97025528 -6.88040985 18.25223236 -7.61694336 17.51245117 C-8.24789413 16.8807048 -8.87884491 16.24895844 -9.52891541 15.59806824 C-11.61759292 13.32909662 -11.98382699 12.24798614 -12.1875 9.125 C-12.00235491 6.03924846 -11.77840309 4.48976433 -10 2 C-6.74404505 -0.32568211 -3.90762208 -0.67631921 0 0 Z " fill="#F34235" transform="translate(84,73)"/>
<path d="M0 0 C3.57632467 2.51103647 4.78325846 4.04272488 5.75 8.3125 C4.97838826 12.10625772 4.47089656 12.94606655 1.98413086 15.67797852 C1.34837128 16.37851349 0.71261169 17.07904846 0.05758667 17.80081177 C-5.82439449 24.08758644 -11.84565121 30.23291245 -17.89672852 36.35668945 C-19.59597518 38.0827139 -21.28801576 39.81586125 -22.97290039 41.5559082 C-25.4222573 44.0842536 -27.89373729 46.58896396 -30.37109375 49.08984375 C-31.11717392 49.86891586 -31.86325409 50.64798798 -32.63194275 51.45066833 C-38.56030728 57.35673468 -38.56030728 57.35673468 -43.35571289 58.10766602 C-47.67235069 57.98013622 -49.07549795 57.1017446 -52 54 C-53.50889469 50.98221063 -53.50026276 49.37677363 -53 46 C-48.55256224 39.82506578 -42.66690203 34.51990554 -37.29296875 29.16015625 C-36.08306023 27.94881264 -36.08306023 27.94881264 -34.84870911 26.71299744 C-33.15826114 25.02187355 -31.46656805 23.33199344 -29.77368164 21.64331055 C-27.1741252 19.04915298 -24.58000325 16.44964575 -21.98632812 13.84960938 C-20.33886258 12.20280389 -18.69108726 10.55630824 -17.04296875 8.91015625 C-16.26592087 8.13108414 -15.48887299 7.35201202 -14.6882782 6.54933167 C-13.61124382 5.47702553 -13.61124382 5.47702553 -12.51245117 4.38305664 C-11.8807048 3.75210587 -11.24895844 3.12115509 -10.59806824 2.47108459 C-7.28075903 -0.58262886 -4.3942364 -0.4468715 0 0 Z " fill="#F34235" transform="translate(125,383)"/>
<path d="M0 0 C2.58971247 0.86323749 3.66500737 1.53101032 5.25 3.75 C6.30656709 6.91970128 6.57948447 8.65186752 6 12 C1.51189216 18.15889026 -4.32490458 23.4719227 -9.70703125 28.83984375 C-10.51363693 29.64740616 -11.32024261 30.45496857 -12.15129089 31.28700256 C-13.84173886 32.97812645 -15.53343195 34.66800656 -17.22631836 36.35668945 C-19.8258748 38.95084702 -22.41999675 41.55035425 -25.01367188 44.15039062 C-26.66113742 45.79719611 -28.30891274 47.44369176 -29.95703125 49.08984375 C-30.73407913 49.86891586 -31.51112701 50.64798798 -32.3117218 51.45066833 C-33.02974472 52.16553909 -33.74776764 52.88040985 -34.48754883 53.61694336 C-35.1192952 54.24789413 -35.75104156 54.87884491 -36.40193176 55.52891541 C-38.67090338 57.61759292 -39.75201386 57.98382699 -42.875 58.1875 C-45.96075154 58.00235491 -47.51023567 57.77840309 -50 56 C-51.59177021 53.7715217 -52.01314313 51.93574472 -52.5625 49.25 C-51.19823075 41.36755544 -41.786251 34.63893949 -36.29296875 29.16015625 C-35.08306023 27.94881264 -35.08306023 27.94881264 -33.84870911 26.71299744 C-32.15826114 25.02187355 -30.46656805 23.33199344 -28.77368164 21.64331055 C-26.1741252 19.04915298 -23.58000325 16.44964575 -20.98632812 13.84960938 C-19.33886258 12.20280389 -17.69108726 10.55630824 -16.04296875 8.91015625 C-15.26592087 8.13108414 -14.48887299 7.35201202 -13.6882782 6.54933167 C-12.61124382 5.47702553 -12.61124382 5.47702553 -11.51245117 4.38305664 C-10.8807048 3.75210587 -10.24895844 3.12115509 -9.59806824 2.47108459 C-6.51592438 -0.36614992 -4.09012221 -0.24540733 0 0 Z " fill="#F34335" transform="translate(434,73)"/>
<path d="M0 0 C6.15889026 4.48810784 11.4719227 10.32490458 16.83984375 15.70703125 C17.64740616 16.51363693 18.45496857 17.32024261 19.28700256 18.15129089 C20.97812645 19.84173886 22.66800656 21.53343195 24.35668945 23.22631836 C26.95084702 25.8258748 29.55035425 28.41999675 32.15039062 31.01367188 C33.79719611 32.66113742 35.44369176 34.30891274 37.08984375 35.95703125 C37.86891586 36.73407913 38.64798798 37.51112701 39.45066833 38.3117218 C40.52297447 39.38875618 40.52297447 39.38875618 41.61694336 40.48754883 C42.24789413 41.1192952 42.87884491 41.75104156 43.52891541 42.40193176 C45.56434654 44.61306079 45.97672774 45.79054962 46.3125 48.8125 C45.92835642 52.7307645 44.70743683 54.21293267 42 57 C38.98221063 58.50889469 37.37677363 58.50026276 34 58 C27.82506578 53.55256224 22.51990554 47.66690203 17.16015625 42.29296875 C16.35259384 41.48636307 15.54503143 40.67975739 14.71299744 39.84870911 C13.02187355 38.15826114 11.33199344 36.46656805 9.64331055 34.77368164 C7.04915298 32.1741252 4.44964575 29.58000325 1.84960938 26.98632812 C0.20280389 25.33886258 -1.44369176 23.69108726 -3.08984375 22.04296875 C-3.86891586 21.26592087 -4.64798798 20.48887299 -5.45066833 19.6882782 C-6.16553909 18.97025528 -6.88040985 18.25223236 -7.61694336 17.51245117 C-8.24789413 16.8807048 -8.87884491 16.24895844 -9.52891541 15.59806824 C-11.61759292 13.32909662 -11.98382699 12.24798614 -12.1875 9.125 C-12.00235491 6.03924846 -11.77840309 4.48976433 -10 2 C-6.74404505 -0.32568211 -3.90762208 -0.67631921 0 0 Z " fill="#F34335" transform="translate(394,383)"/>
</svg>
